<?xml version="1.0" encoding="utf-8"?>
<!DOCTYPE svg PUBLIC "-//W3C//DTD SVG 1.0//EN" "http://www.w3.org/TR/2001/REC-SVG-20010904/DTD/svg10.dtd">
<svg version="1.0" xmlns="http://www.w3.org/2000/svg" width="720px" height="540px" viewBox="0 0 720 540" preserveAspectRatio="xMidYMid meet">
 <g fill="#000000">
  <path d="M0 270 l0 -270 360 0 360 0 0 270 0 270 -45.4 0 -45.5 0 -1.1 -5.7 c-0.6 -3.2 -3.5 -14.6 -6.3 -25.3 -5.2 -19.8 -6.3 -28.5 -4.4 -37 l0.7 -3.6 -3.8 0.4 -3.9 0.4 -3.8 -10.9 c-5.6 -15.9 -15.5 -39.3 -23 -54.4 -4.1 -8.5 -6.5 -14.6 -6.5 -16.7 l0 -3.4 9.4 0.7 c7.3 0.5 10.7 0.3 14.9 -0.9 5.9 -1.7 14.2 -7.5 15.2 -10.6 0.9 -2.7 5.8 -2.7 9.3 0.1 1.5 1.1 9.3 7.9 17.5 15.1 13.5 12 14.7 13.3 14.7 16.4 0 2.8 -0.4 3.4 -2.2 3.5 -1.3 0.1 1.3 1 5.7 2.1 l8 1.9 15.5 15.2 15.5 15.2 -13.7 -14 c-12.2 -12.5 -13.8 -14.5 -14.9 -19 -0.7 -2.7 -2.2 -7.2 -3.5 -10 -2.2 -4.9 -2.2 -4.9 -2.3 -1.7 -0.1 3 -0.3 3.2 -3.6 3.2 -3.1 0 -5 -1.3 -14.3 -9.8 -6 -5.3 -14.8 -13.1 -19.6 -17.2 l-8.8 -7.5 0.6 -8 c0.3 -4.4 0.6 -17.1 0.6 -28.2 l0 -20.3 3.7 0 c2.1 0 6.8 1.2 10.5 2.7 6.7 2.6 6.8 2.7 6.8 6.4 0 2 -0.6 4 -1.2 4.2 -0.7 0.3 3.4 0.6 9.1 0.6 l10.3 0.1 9.2 5.1 c10.1 5.7 18.8 11.4 25.6 16.8 3.9 3 4.1 3.1 2 0.7 -3 -3.3 -20.2 -15 -30.5 -20.7 -6.8 -3.7 -7.7 -4.6 -11.4 -11.2 -2.1 -4 -4.6 -8.1 -5.5 -9.2 -1.4 -1.9 -1.5 -1.7 -1.6 3.3 0 5 -0.1 5.2 -2.8 5.2 -1.5 0 -7.4 -2 -13.2 -4.5 l-10.5 -4.4 -0.3 -14.6 -0.3 -14.5 4.1 0 c3.8 0 4 0.2 4 3 0 3.8 0.6 3.8 5.3 -0.1 l3.8 -3.2 31.2 -0.8 c32.7 -1 36.2 -1.3 35.1 -3.1 -0.5 -0.8 -9.5 -0.9 -31.8 -0.4 l-31.1 0.7 -6.5 -2.9 -6.5 -3 -0.3 3.4 -0.3 3.4 -12.7 0.1 c-13.4 0.2 -20.8 0.3 -91.7 2 -47.1 1.1 -46.6 1 -50.1 6.3 -1.4 2.3 -1.4 2.7 0.2 5.1 2.6 3.9 5.1 4.9 14.9 5.5 l9 0.5 0.3 4.1 c0.3 4 0.1 4.2 -11.5 15.5 -6.5 6.3 -15.6 14.5 -20.1 18.2 -7.2 5.7 -9 6.7 -12.3 6.7 l-3.9 0 0 -27.5 c0 -29.5 -0.4 -32 -5.1 -34.6 -1.7 -0.9 -2.6 -0.7 -4.8 0.8 -4.7 3.5 -5 6.3 -5 43 l-0.1 34.2 -9.8 5.5 c-6 3.5 -11 5.6 -12.9 5.6 -2.8 0 -3.1 -0.4 -3.7 -3.7 -1.2 -6.9 -4.6 -16 -8.1 -21.8 -3.2 -5.3 -4.6 -11.5 -2.7 -11.5 2.4 0 9.5 -7.8 12.3 -13.5 2.7 -5.5 3.1 -7.3 2.7 -12.2 -0.5 -7.2 -3.9 -14.2 -9.6 -19.9 -11.4 -11.4 -29.7 -13.7 -35.9 -4.5 l-2.3 3.4 0 45.3 0 45.3 2.8 0.3 c2.3 0.3 2.7 0.8 3 4.1 l0.3 3.7 -5 0 c-3.9 0 -5.1 -0.4 -5.1 -1.5 0 -1.9 -0.3 -1.9 -4.2 0.5 -1.8 1.1 -4.8 2 -6.6 2 -5.3 0 -22.5 -3.8 -30.2 -6.6 l-7 -2.6 0.1 -4.7 c0 -2.5 0.6 -6.8 1.3 -9.6 l1.1 -5 9.1 -0.3 9 -0.3 1.8 7.5 c2.5 10.6 7 15.1 10.9 10.8 3.7 -4 3.7 -6.1 -0.4 -23.2 -2.1 -9.1 -5 -21.7 -6.4 -28 -6.7 -30.7 -8.2 -36.2 -10.8 -38.7 -1.8 -1.8 -3 -2.3 -4.6 -1.8 -4.8 1.5 -6.6 6.7 -15.1 44.5 -4.4 20.1 -8.4 37.3 -8.6 38.3 -1.3 4.5 -11.9 -0.2 -33.4 -15 l-8.5 -5.8 0 -27.2 c0 -25.8 -0.1 -27.3 -2.1 -29.9 -3.5 -4.8 -5 -5.2 -8 -2.3 -3.5 3.6 -4.3 8.4 -4.4 26.7 l0 15.2 -3.4 0 c-2.7 0 -4.6 -1 -8.9 -5 -5.1 -4.7 -5.6 -5.5 -6.6 -11.6 -2.7 -15.3 -8.4 -23.9 -19.3 -28.9 -4.7 -2.2 -5.8 -2.3 -21.1 -1.8 -8.9 0.2 -27 -0.1 -40.2 -0.7 -13.2 -0.6 -31 -1.2 -39.5 -1.3 -14 -0.2 -15.9 -0.4 -19.7 -2.5 l-4.3 -2.2 0 2.1 0 2.2 -36.1 -0.8 c-30.2 -0.6 -36.1 -0.5 -35.7 0.6 0.4 1.1 5.2 1.6 21.9 2.2 54.7 1.9 51.9 1.7 51.9 3.9 0 1.9 0.1 1.9 2.9 -0.1 2.2 -1.6 4.4 -2.1 9 -2.1 l6.1 0 0 12.9 0 12.9 -7 2.8 c-6.8 2.6 -12.6 2.9 -21.5 1.1 -1.1 -0.2 -1.4 -0.2 -0.7 0 0.6 0.3 1.2 1.9 1.2 3.7 0 3.3 -0.2 3.4 -15.4 10.9 -15.5 7.7 -37 21.2 -41.6 26.2 -1.4 1.5 1.3 0 6 -3.4 16 -11.8 42.8 -26.1 48.9 -26.1 2.4 0 3 0.5 3.3 2.6 0.3 2.4 0.6 2.1 5.3 -3.7 4 -5 6 -6.6 10 -8 2.8 -1 6.5 -1.8 8.3 -1.8 l3.2 -0.1 0 26.9 0 27 -10.2 8.8 c-5.7 4.8 -15.8 13.6 -22.5 19.5 l-12.1 10.8 -6.9 0.1 c-5.1 0 -6.2 0.3 -4.5 0.9 1.6 0.7 2.2 1.7 2.2 4.2 0 2.9 -2 5.3 -17.2 20.8 l-17.3 17.4 17.1 -16.7 c15.7 -15.3 17.4 -16.7 20.7 -16.7 2.9 0 3.6 0.4 3.9 2.3 0.2 1.4 1.1 -0.7 2.5 -5.4 2.3 -8.4 2.1 -8.1 20.8 -24.5 16 -14 17.9 -15.4 21.6 -15.4 2.4 0 3.9 0.7 5.5 2.7 4.2 5.2 9.4 -1.1 9.4 -11.4 l0 -6.2 8.3 -6.4 c4.5 -3.6 13.6 -10.3 20.2 -15.1 9.6 -6.8 12.7 -8.5 15.5 -8.6 l3.6 0 1.2 9.3 c2 14.7 2 14.4 -6.2 26.4 -10.5 15.5 -17.6 28 -27.6 48.6 -9.1 18.9 -17.2 38.2 -22.2 52.7 -2.3 7 -3.7 9.4 -8 13.7 -4.5 4.6 -4.9 5.3 -3 5.3 1.9 0 2.2 0.5 2.2 3.6 0 2 -1.3 8.2 -2.9 13.8 -3.3 11.2 -7 26 -9.6 37.9 l-1.6 7.7 -42 0 -41.9 0 0 -270z m473.6 -20.5 c14.6 -7.5 24.7 -25.6 21 -37.8 -2.9 -9.7 -9.1 -14.4 -21.6 -16.7 -10.1 -1.8 -14 -6.7 -14 -17.5 0 -6.1 1.9 -10.8 4.9 -12.5 1.1 -0.5 4.4 -1 7.5 -1 4.5 0 6 0.5 8.6 2.7 3.8 3.2 6.3 2.3 6.8 -2.4 0.3 -2.5 -0.4 -3.7 -3.6 -6.4 -2.3 -2.1 -5.1 -6.1 -7 -10.3 -1.8 -3.7 -5.3 -10.2 -7.8 -14.2 -3.7 -5.9 -4.5 -8.1 -4.2 -10.8 0.3 -3.2 0.1 -3.6 -3.3 -5.1 -2 -0.9 -9.9 -7.8 -17.5 -15.4 -15.3 -15.1 -29 -25 -44.7 -32.5 -15.5 -7.3 -30.9 -11.6 -42.2 -11.6 -18.4 0.1 -46.7 11.4 -68.1 27.3 -8 6 -24.3 21.6 -29.4 28.1 -3 3.9 -4 4.5 -7.1 4.6 l-3.7 0 -1.2 6.7 c-0.7 4.4 -2.4 8.9 -5.1 13.4 -2.1 3.7 -4.8 8.8 -5.9 11.3 -1.8 4.4 -2.1 4.6 -5.9 4.6 -3.1 0 -4.4 0.6 -6.4 2.9 -2.3 2.8 -2.5 4 -3.2 18.5 l-0.7 15.6 -3.2 0 c-3.1 0 -3.2 -0.1 -9.6 -15.7 -6.6 -16.2 -9 -19.7 -14 -20.8 -2.5 -0.6 -3 -1.2 -3.7 -5.3 -0.4 -2.6 -0.8 -17.7 -0.7 -33.7 l0 -29 4.6 -10.2 4.7 -10.3 -3.1 0 -3.1 0 0.6 -8.8 c0.6 -9.4 4.3 -25.1 7.6 -32.9 2 -4.6 2 -4.7 0.2 -2.5 -3.8 4.4 -9.4 23.8 -11.6 39.5 l-0.7 4.9 -3.8 -0.4 -3.8 -0.3 2.6 6.5 c2.6 6.4 2.6 6.7 2.7 36 0.1 16.2 0.5 47.8 1 70.3 l0.7 40.7 -3.9 0 c-3.7 0 -4.2 -0.4 -8.6 -6.4 l-4.7 -6.4 0 -22.5 0 -22.5 -2.6 -3.2 c-5 -5.9 -10.4 -1.5 -11.2 9 -0.4 6 -0.4 6 -3.6 6 -3.1 0 -3.5 -0.5 -10.5 -13.2 -8.3 -15.2 -23.7 -46.3 -30.5 -61.7 l-4.6 -10.5 0.6 -8.6 0.7 -8.6 -4 0.4 c-3.9 0.4 -4.1 0.3 -5.8 -4 -6.2 -15.3 -12.5 -37.3 -12.5 -44 0 -4 -1.6 -6 -2.7 -3.2 -1 2.8 1.4 12.7 7.7 31.6 6.9 20.4 7.3 22.8 3.3 22.8 -2.7 0.1 -2.4 0.4 3.8 6.3 5.9 5.6 7.2 7.4 12 18.2 8.5 19.2 26 53.6 36.3 71.7 l9.6 16.7 0 18 0 18.1 -3.8 0 c-4 0 -12.8 -5.2 -22.7 -13.5 -2.7 -2.2 -11.7 -9.2 -19.8 -15.4 -14.5 -11 -30.5 -24.9 -43.9 -37.9 -5.9 -5.8 -6.9 -7.2 -8.4 -13 -1 -3.6 -2 -6 -2.2 -5.4 -0.2 0.7 -1.9 1.2 -3.7 1.2 -2.9 0 -4.3 -1.1 -10.9 -8.3 -4.1 -4.5 -12.6 -15 -18.8 -23.2 -6.2 -8.2 -12 -15.1 -12.8 -15.3 -0.8 -0.3 -0.1 1.1 1.6 2.9 1.7 1.9 5.2 6.2 7.7 9.7 10.8 14.3 13.9 18.2 21.7 26.6 7.7 8.3 8.2 9 7.8 12.7 l-0.4 3.9 5.1 0.6 c4.6 0.6 5.7 1.4 14.5 9.9 15.9 15.3 28.9 26.6 42 36.5 6.9 5.2 16.1 12.3 20.5 15.9 4.4 3.5 12.1 9.1 17 12.4 l9 5.9 0.7 5.1 c0.3 2.9 0.6 6.7 0.7 8.5 l0.1 3.2 -9.7 0 c-9.2 0 -24.6 -1.9 -44.2 -5.5 -9 -1.6 -9.2 -1.7 -19.4 -11.4 l-5.7 -5.5 0 3.7 c0 3.6 -0.1 3.7 -3.4 3.7 -8.9 0 -41.6 -15.1 -49.8 -23 -2.8 -2.7 -5.3 -4.8 -5.6 -4.6 -0.2 0.3 1.7 2.4 4.2 4.8 8 7.7 23.9 16.1 44.1 23.4 8.6 3 9 3.3 9.3 6.4 0.2 2.3 -0.3 3.9 -1.9 5.6 l-2.2 2.3 3.9 -1.1 c2.2 -0.5 5.6 -1.9 7.6 -2.9 4.7 -2.4 7.1 -2.4 16.6 0 12 3.1 28.8 6 39.7 7 11 1 28.5 -0.5 40.2 -3.5 3.6 -0.9 8.1 -1.4 10 -1.1 3 0.5 4 0.2 6.4 -2.3 2.8 -2.7 2.9 -3.3 2.9 -11.7 0 -4.8 0.3 -10.5 0.6 -12.5 0.6 -3.5 0.9 -3.8 3.8 -3.8 3.2 0 3.3 0.2 8.6 13 3.2 7.8 6.4 14 8.1 15.6 l2.8 2.6 3.8 -1.8 c3 -1.5 4.1 -2.8 5.3 -6.4 2.1 -6.2 2 -6.1 12.3 -15 7.4 -6.5 9.7 -8 12.4 -8 3.6 0 3.4 -0.5 7.4 17 2.3 10 5.6 16 8.9 16 2.4 0 6.7 -5.1 7.9 -9.5 0.5 -1.9 3.3 -13.9 6.2 -26.6 l5.3 -23.2 8 -3.8 c5 -2.4 9.4 -3.9 11.8 -3.9 l3.8 0 0 30.8 0 30.7 2.5 3.8 2.6 3.7 12.8 0 c7 0 15.5 0.3 18.9 0.6 5.6 0.6 6.2 0.5 8.6 -1.9 3.1 -3.1 3.3 -7 0.6 -9.7 -1.8 -1.8 -3.3 -2 -17 -2 l-15 0 0 -13.5 0 -13.4 13.2 -0.3 13.2 -0.3 1.9 -3.2 c1.5 -2.7 1.6 -3.6 0.6 -5.5 -0.7 -1.3 -1.7 -2.6 -2.3 -3 -0.6 -0.4 -6.8 -0.8 -13.8 -0.8 l-12.6 0 -0.7 -7.2 c-0.4 -4 -0.5 -9.5 -0.3 -12.3 0.3 -4.6 0.5 -5 3.3 -5.6 1.7 -0.4 6.8 -0.7 11.5 -0.8 7.4 0 9 0.3 12.5 2.4 5 3.1 5.5 3.1 5.5 -0.1 l0 -2.7 8.8 0.6 c4.8 0.4 9.7 0.9 11 1.3 l2.2 0.6 0 35 c0 37 0.1 37.9 4.9 42.2 2 1.8 2.1 1.8 4.9 -1.2 3.7 -4 4.2 -6.5 4.2 -22.8 l0 -13.4 4.2 0 c5.9 0 9.9 3.5 14.3 12.3 2.5 5.2 3.7 9.1 4.2 14 0.4 4.5 1.3 7.7 2.6 9.3 1.8 2.4 2 2.4 3.8 0.8 2.5 -2.3 2.5 -8.3 -0.2 -17 -2.3 -7.5 -5.1 -13.6 -8 -17.3 -1.1 -1.3 -1.9 -3.8 -1.9 -5.7 0 -2.6 0.7 -3.6 3.3 -5.3 1.8 -1.1 4.2 -2.9 5.2 -4.1 4.1 -4.6 10.2 -1.8 31.1 14.6 14.9 11.6 19.4 16.2 19.4 19.9 0 2.7 -0.6 3.5 -3.4 4.9 -4.5 2.1 -13.9 2.1 -16 0 -0.9 -0.8 -1.6 -2.4 -1.6 -3.5 0 -2.7 -2.8 -7.9 -4.2 -7.9 -2.3 0 -4.8 3.4 -4.8 6.4 0 4.7 5.7 13.6 10.5 16.3 5.2 3 10 2.9 16.1 -0.2z m98.9 -0.5 c13 -1.3 36.5 -5.9 48.8 -9.5 9.3 -2.7 14.3 -3.2 14.9 -1.4 0.2 0.6 2.4 -0.6 4.8 -2.6 2.5 -2 9 -5.4 14.5 -7.6 16.7 -6.7 34.8 -17.8 37.6 -23.1 0.8 -1.4 -0.9 -0.3 -4.3 2.8 -3.6 3.3 -10.5 7.5 -19.9 12.4 l-14.3 7.3 -10 -1.2 c-5.6 -0.7 -11.4 -1.5 -13.1 -1.8 l-3 -0.5 2.3 1.7 c1.5 1.1 2.2 2.6 2.2 5 0 3.3 -0.1 3.5 -6.7 5.4 -18.3 5.4 -37.9 9 -54 9.8 -11.2 0.6 -12.3 0.5 -12.3 -1.1 0 -1 -1.3 -3.1 -3 -4.8 -5.6 -5.5 -4.6 -7.2 9.7 -16.7 6.9 -4.6 15.3 -10.7 18.7 -13.6 3.3 -2.8 11.7 -9.4 18.6 -14.5 13.2 -9.9 33.7 -28 45.5 -39.9 6.2 -6.3 7.4 -7.1 10.7 -7.1 3.3 0 3.8 0.3 3.9 2.3 l0 2.2 0.9 -2.2 c5.8 -14.4 7.8 -18.1 13.4 -24.7 3.3 -4 8.6 -10.5 11.6 -14.5 3 -4 7.7 -9.9 10.3 -13.2 2.6 -3.2 4.3 -5.9 3.7 -5.9 -0.9 0 -5.4 5.6 -19 23.9 -1.9 2.6 -5.9 7.5 -8.9 10.9 l-5.4 6.2 -9.6 0 -9.6 0.1 3.3 2.8 c2.4 2.1 3.2 3.5 3.2 6.2 0 3 -1.1 4.5 -9.2 12.5 -15 14.7 -29.4 27.3 -43.3 37.9 -7.1 5.4 -16.1 12.5 -20 15.6 -6.7 5.4 -25.6 18.2 -38.5 26.2 -5.7 3.5 -6.6 3.7 -14 3.7 l-8 0 0 -4.8 c0 -4.2 0.4 -5.1 3 -7 1.6 -1.2 5.3 -5.2 8.2 -8.7 5 -6.4 5.3 -6.5 9.9 -6.5 4 0 5.1 -0.4 6.9 -2.7 1.5 -2 2 -3.5 1.5 -5.3 -2.1 -8.3 -2.2 -8.2 7.6 -24.7 11.8 -20.1 28.9 -53.4 40 -77.8 l8.7 -19 3.5 -0.3 c2.7 -0.2 3.6 0.1 3.9 1.4 0.1 1 0.3 -3.4 0.3 -9.7 0.1 -10.9 0.3 -12 4.7 -24.9 4.9 -14.3 7.5 -25.7 6.5 -28.4 -1.1 -2.9 -2.7 -0.7 -2.7 3.8 0 5.6 -3 17.2 -8.1 31.9 -4.1 11.6 -4.3 11.9 -10.6 17.3 -6.3 5.3 -6.4 5.4 -3.4 5.4 2.7 0 3.1 0.3 3.1 2.8 0 3.6 -6.9 19.1 -22 49.7 -12 24.3 -17.5 34.4 -30.2 55.8 l-7 11.7 -11.9 0 -11.9 0 0 -15.5 0 -15.5 15.3 0 c8.3 0 15.7 -0.4 16.3 -0.8 1.5 -1 3.4 -4.7 3.4 -6.6 0 -0.9 -0.9 -2.5 -2 -3.6 -1.8 -1.8 -3.3 -2 -16.2 -2 l-14.3 0 0 -40 0 -40 2.9 0 3 0 -4 -3.4 c-3.9 -3.3 -4.1 -3.9 -5.3 -12.3 -2.6 -17.4 -8.4 -35.5 -12.2 -37.8 -0.6 -0.4 -0.1 1.1 1 3.3 2.4 4.7 5.5 16.2 7.6 28.6 2 11.8 1.9 13.1 -1 17.4 l-2.5 3.7 2.9 0.3 c2.6 0.3 3.1 0.9 3.8 4 1 4.9 1 67.7 0 72.5 -0.5 2.3 -1.4 3.7 -2.3 3.7 -2.8 0 -7.4 3 -8.9 6 -1.3 2.4 -1.5 9 -1.5 41.9 0 40.4 0.2 42.5 4.3 46.9 l2.2 2.4 22 -0.5 c12.1 -0.3 27 -1 33 -1.7z"/>
  <path d="M174.3 238.7 l-4.3 -2.1 0 -9.8 0 -9.8 3.3 0 c2.6 0 4 1 8 5.4 4.6 5.3 4.7 5.6 4.7 12 l0 6.6 -3.7 -0.1 c-2.1 0 -5.7 -1 -8 -2.2z"/>
  <path d="M470.4 222.9 c-9.2 -8.2 -21.3 -17.5 -30.3 -23.5 l-7.3 -4.9 0.7 -6 c1.1 -9.3 0.7 -13.3 -1.9 -19.1 -5 -10.9 -17.3 -19.5 -29.1 -20.2 -11.7 -0.8 -17.5 4.2 -17.5 15.1 0 5.7 0 5.7 -3.1 5.7 -1.6 0 -6.2 -0.5 -10 -1.2 l-7 -1.1 0.3 -5.8 c0.2 -4.5 -0.1 -6.2 -1.6 -7.8 -1.8 -2 -2.9 -2.1 -19.3 -2.1 -24.5 0 -27.2 1.5 -28.1 15.5 l-0.5 7.4 -5.7 3 c-3.5 1.9 -7.3 3.1 -9.5 3.1 l-3.8 0 0.7 -6.7 c0.3 -3.8 0.9 -8.4 1.2 -10.4 0.5 -3.1 0.1 -4.2 -2.4 -7 -2.9 -3.2 -3 -3.3 -5.5 -1.6 -3 1.9 -4 4.9 -8.7 25.7 -1.7 7.4 -3.4 13.8 -3.6 14.2 -0.7 1 -8.4 1.1 -8.4 0.1 -0.1 -2.9 -8.3 -35.2 -9.5 -36.9 -2.1 -3.3 -5.2 -3.9 -7.7 -1.7 -3.9 3.5 -3.8 5.1 1.3 26.9 2.7 11.5 4.8 22 4.8 23.4 0 1.9 -2.2 4.2 -9 9.8 -7.4 6 -9.5 7.2 -12.5 7.2 l-3.6 0 0.3 -34 0.4 -33.9 7 -13.7 7 -13.7 6.4 -2.6 c3.6 -1.4 5.7 -2.7 4.8 -2.9 -1.2 -0.3 -1.7 -1.4 -1.7 -3.7 0 -2.8 1.2 -4.8 6.4 -10.7 24.5 -28.2 62.3 -47.8 92.2 -47.8 19.8 0 45.1 9.4 66.7 24.7 9.6 6.9 28.2 24.8 29.7 28.7 0.5 1.5 1 6 1.1 9.9 0 5.9 0.2 6.8 1.1 5 1.3 -2.6 6.8 -3.2 8.7 -1 3.2 3.9 9.1 16.3 9.1 19.2 0 3 -0.3 3.3 -4.7 4.6 -6.4 1.7 -14.3 9.5 -16.6 16.3 -3.3 9.5 -1.8 18.5 4.5 27.2 4.2 5.9 9.3 8.8 19.7 11.3 4.7 1.1 8.8 2.6 9.3 3.3 1.1 1.9 1 12 -0.3 15.7 -0.9 2.6 -1.6 3.1 -4.3 3.1 -2.6 0 -4.8 -1.3 -10.2 -6.1z"/>
  <path d="M399 189.5 l0 -8.5 3.5 0 c2.1 0 6.5 1.5 10.5 3.5 6.6 3.3 7 3.7 7 6.9 0 3 -0.4 3.6 -4 5 -2.3 0.9 -6.9 1.6 -10.5 1.6 l-6.5 0 0 -8.5z"/>
  <path d="M408.8 180.9 l-9.8 -5.1 0 -7.9 0 -7.9 5.3 0 c5.6 0 12.7 2.7 16.5 6.3 3.8 3.5 5.2 7.2 5.2 13.7 l0 6 -3.7 -0.1 c-2.5 0 -7.2 -1.8 -13.5 -5z"/>
  <path d="M525 216 l0 -5 5 0 5 0 0 3.3 c0 4.2 -2.6 6.7 -6.8 6.7 -3.2 0 -3.2 -0.1 -3.2 -5z"/>
  <path d="M87 538.3 c0 -3.3 5.9 -28.6 10.1 -43.6 l4.2 -14.9 3.9 0.4 4 0.4 -0.7 -4.1 c-2 -12.7 -2.1 -12.5 4 -28.7 13 -34.7 32.1 -72.9 46.1 -92 2.9 -4.1 3.9 -4.8 6.7 -4.8 2.6 0 3.6 0.6 4.5 2.5 1.8 3.9 8.9 11.1 12.9 13 3.5 1.7 3.5 1.8 3 6.9 -0.3 2.8 -1.3 10.1 -2.2 16.1 -2.2 14 -2.5 46.8 -0.6 65.6 1.4 14.3 1.4 14.9 -3.6 28.4 -0.2 0.6 1.4 0.9 4 0.7 l4.3 -0.4 2.3 9.9 c4.1 16.9 12.4 40.3 14.3 40.3 0.6 0 0.7 -0.7 0.3 -1.7 -5.5 -12.7 -13.5 -40.4 -13.5 -47 l0 -4.3 4.7 0 4.6 0 -2 -2.2 c-1.1 -1.3 -4.1 -5.4 -6.8 -9.3 -4.2 -6.1 -4.9 -7.9 -5.7 -14.5 -1.6 -13 -1.3 -53.1 0.6 -66.5 2.5 -18.6 2.1 -17.9 9.3 -18.7 6.4 -0.7 10.6 -2.4 16 -6.4 1.8 -1.4 4.5 -2.4 6.5 -2.4 3.3 0 3.3 0.1 6.7 9.3 4.1 11.4 12.4 28.9 19.1 40.6 2.9 5.2 5 10.1 5 11.8 0 1.7 0.3 4.5 0.6 6.2 0.6 2.8 1 3.1 4.4 3.1 3.4 0 4.3 0.6 9.4 6.8 18 22 45.2 41.9 66.4 48.6 24.5 7.7 48.6 4.9 71.8 -8.3 15.9 -9 26.2 -17.1 40.5 -31.8 10.1 -10.3 14.1 -13.7 21 -17.5 7.6 -4.3 8.1 -4.8 5.2 -4.8 -3.1 0 -3.3 -0.2 -3.3 -3.5 0 -2.5 1.7 -6.5 5.6 -13.3 6.1 -10.3 13.5 -26.4 17.5 -37.4 2.3 -6.5 2.5 -6.8 5.6 -6.8 2.7 0 3.2 0.4 3.8 3 0.8 3.8 5.1 9 7.4 9 4.4 0 8 -7.6 8.1 -16.7 0 -4.2 0.1 -4.3 3.4 -4.3 3.4 0 3.4 0 5.5 7.8 6.7 25 8.6 60.9 5 94.7 -1.4 13.5 -1.7 14.5 -4.4 14.5 l-2.3 0 1.6 5 c1.5 4.7 1.5 5.7 -0.2 13.8 -2 9.5 -8 29.6 -11.4 38 -1.2 2.8 -1.8 5.2 -1.3 5.2 1.4 0 8.8 -19.5 12.6 -33.6 2.3 -8.4 4.3 -13.6 6 -15.6 1.4 -1.7 3.2 -4.3 4.1 -5.9 1.4 -2.8 1.4 -2.9 -1.1 -2.9 -2.2 0 -2.5 -0.4 -2.5 -3.3 0 -1.9 0.8 -8 1.7 -13.8 2.4 -15.2 2.4 -54.3 0 -69.9 -3 -18.9 -7.4 -34.4 -13.3 -46.2 -3.1 -6.2 -3.4 -7.5 -3.4 -15.8 l0 -9 3.8 0 c3 0 4.8 1 9.8 5.3 11.4 9.7 28.1 30.3 30.5 37.6 1.3 4 3.8 7.9 8.4 13.1 3.7 4.3 18.3 32.7 25.9 50.8 13 30.6 18.3 48.2 14.4 48.2 -0.7 0 0.4 1.5 2.4 3.3 3.3 2.9 4 4.4 7.2 16.2 4.6 16.8 10.6 42.4 10.6 45.3 l0 2.2 -269.5 0 c-256 0 -269.5 -0.1 -269.5 -1.7z"/>
  <path d="M336.5 486.4 c-24.9 -5.5 -50.6 -22.1 -69.9 -45.3 -5.4 -6.5 -6.6 -8.5 -6.6 -11.4 0 -2.6 0.5 -3.6 1.8 -3.9 0.9 -0.2 -0.9 -1.3 -4.4 -2.6 -5.5 -2 -6.3 -2.7 -9.8 -8.4 -9.7 -16.3 -25.6 -53.5 -25.6 -60.1 0 -1.3 0.9 -5 2.1 -8.3 1.3 -3.7 2.3 -9.6 2.6 -16.1 l0.6 -10.3 2.9 0 c2.1 0 4.6 1.4 8.4 4.6 l5.4 4.6 0 15.5 c0 16.9 0.8 20.4 5.5 24.1 2.5 2 3.9 2.2 16.1 2.2 12.6 0 13.4 -0.1 14.8 -2.2 0.9 -1.2 1.6 -3.5 1.6 -5 0 -2.5 0.3 -2.8 3.5 -2.8 4 0 15 5.2 17.5 8.2 0.9 1.2 3.6 2.4 6.1 2.9 2.4 0.4 9.8 2.6 16.4 4.9 7.6 2.7 15 4.5 20.3 5 6.6 0.7 9.1 1.4 11.8 3.5 l3.4 2.6 0 -2.3 c0 -2.2 0.7 -2.5 9.2 -4.1 5.1 -1 13.8 -3.3 19.3 -5.1 5.5 -1.8 11.4 -3.6 13 -4 1.7 -0.4 3.9 -1.5 5 -2.5 4.3 -3.8 19.7 -11.1 23.5 -11.1 3.4 0 3.8 0.3 4.4 3.1 0.3 1.7 1.9 4.4 3.6 6.1 2.8 2.8 3.2 2.9 5.3 1.6 4.1 -2.7 5.7 -7.5 5.7 -17 l0 -8.6 10.3 -8 c5.6 -4.4 14.9 -12.3 20.7 -17.6 8.7 -7.9 11.1 -9.5 13.8 -9.6 l3.2 0 0 7.9 c0 20.5 -10.4 55.4 -25 83.9 -8.9 17.5 -9.4 18.2 -13.1 18.2 -1.9 0 -3.7 -0.7 -4.5 -1.7 -1.2 -1.6 -1.3 -1.4 -1.4 1.6 0 1.9 -0.5 6.3 -1.1 9.7 -1 5.6 -1.8 7.1 -7.3 13.6 -17.6 20.7 -39.6 35.6 -62.1 42.4 -7.7 2.3 -11.2 2.7 -24.5 3 -11.4 0.3 -17.4 -0.1 -22.5 -1.2z"/>
  <path d="M375 373.3 c0 -2.1 0.7 -4.7 1.5 -5.7 1.2 -1.6 1.5 -5.4 1.5 -17.8 l0 -15.8 4.4 0 c2.9 0 5.2 0.7 7 2.1 6.4 5 11.6 17.8 11.6 28.2 l0 6.4 -9.4 3.2 c-5.2 1.7 -11.1 3.1 -13 3.1 -3.5 0 -3.6 -0.1 -3.6 -3.7z"/>
  <path d="M581.6 368.5 c-6 -2.1 -8.9 -4.6 -11.6 -10.2 -4 -8.1 -4.3 -8.3 -11.3 -7.7 l-6.2 0.5 -4 -5.7 c-5.7 -8.2 -21.9 -24.4 -29.2 -29.3 l-6.3 -4.2 0 -5.9 0 -6 4.1 0 c9.5 0 40.8 19.2 77.3 47.4 l11.6 9 0 4.5 c0 5.2 -0.6 6.3 -3.7 8 -3 1.5 -15.9 1.3 -20.7 -0.4z"/>
  <path d="M194 357 c0 -4.5 3.4 -13.1 8.3 -21.2 2.6 -4.4 3.2 -4.8 6.7 -4.8 3.4 0 3.8 0.3 4.4 3.1 1.3 6.5 0.6 12.1 -2 16.9 -3.3 6 -7.5 9.1 -13 9.8 l-4.4 0.5 0 -4.3z"/>
  <path d="M258.7 359.3 c-0.4 -0.3 -0.7 -3.7 -0.7 -7.5 l0 -6.8 3.3 0 c2.1 0 5.1 1.3 9 4.1 5 3.6 5.7 4.5 5.7 7.5 l0 3.4 -8.3 0 c-4.6 0 -8.7 -0.3 -9 -0.7z"/>
  <path d="M181.7 356.2 c-2.4 -2.6 -6.7 -14.7 -6.7 -18.6 0 -2.9 1.1 -4.4 8.3 -11.3 9.8 -9.2 18.1 -14 26 -14.9 l5.7 -0.7 0 4 c0 2.6 -0.6 4.6 -1.7 5.4 -6.7 5.6 -19.7 26.5 -21.8 35.2 -0.6 2.3 -1.2 2.7 -4.5 2.7 -2.3 0 -4.3 -0.7 -5.3 -1.8z"/>
  <path d="M588.8 341.7 c-9.8 -7.4 -10.8 -8.5 -10.8 -11.4 0 -2.8 0.3 -3.3 2.5 -3.3 1.3 0 5.8 1.1 9.9 2.5 4.1 1.4 9.2 2.5 11.4 2.5 4.8 0 5.2 0.7 5.2 10.6 l0 7.4 -3.7 0 c-3.2 0 -5.5 -1.4 -14.5 -8.3z"/>
  <path d="M114 339.1 l0 -4.9 4.9 -1.6 c2.8 -0.9 6.1 -1.6 7.5 -1.6 2.3 0 2.6 0.4 2.6 3.8 0 3.2 -0.6 4.1 -3.9 6.5 -2.5 1.7 -5.2 2.7 -7.5 2.7 l-3.6 0 0 -4.9z"/>
  <path d="M320 335.3 c0 -7.9 0.7 -9.3 4.6 -9.3 3 0 3.4 0.4 4.3 3.8 2.4 8.3 1.3 10.2 -5.5 10.2 -3.4 0 -3.4 0 -3.4 -4.7z"/>
  <path d="M173 323.1 c0 -2.6 0.3 -6.9 0.6 -9.5 l0.7 -4.7 8.6 -4.3 c12.1 -6.1 18.4 -8 23.8 -7.2 6.6 0.9 8.3 2.1 8.3 6 0 3 -0.4 3.4 -4.2 4.5 -7.2 2.1 -17.2 7.9 -24.6 14.2 -5.3 4.4 -7.9 5.9 -10.1 5.9 -3 0 -3.1 -0.1 -3.1 -4.9z"/>
  <path d="M554.9 317.7 c-6.9 -4.5 -16.6 -10.4 -21.7 -13.2 -8.6 -4.7 -9.2 -5.2 -9.2 -8.2 0 -2.8 0.3 -3.3 2.4 -3.3 3.4 0 7.7 -1.7 10.3 -4.2 2.2 -2 2.6 -2.1 11 -0.9 13.6 1.9 13 1.5 13.6 7.4 0.7 5.8 6.6 18.3 10.3 21.8 1.6 1.5 2.4 3.4 2.4 5.6 0 3.1 -0.2 3.3 -3.2 3.3 -2.4 0 -6.7 -2.3 -15.9 -8.3z"/>
  <path d="M144 319.1 c0 -1.6 0.9 -4.8 2 -7.2 1.4 -3.2 2 -6.6 2 -12.6 0 -9.2 -0.7 -8.4 9.4 -10.2 9.5 -1.7 10.6 -1.5 10.6 1.6 0 1.6 -1.2 7.6 -2.7 13.4 l-2.7 10.6 -5.6 3.7 c-3.9 2.5 -6.8 3.6 -9.3 3.6 -3.4 0 -3.7 -0.2 -3.7 -2.9z"/>
  <path d="M114.2 309.8 l0.3 -10.2 9.5 -2.8 c12.4 -3.6 14.7 -3.6 16.1 0 1.6 3.9 0.6 12.8 -1.7 16 -3.4 4.5 -9.9 7.2 -17.6 7.2 l-6.9 0 0.3 -10.2z"/>
  <path d="M378.2 301.3 l0.3 -18.8 4.4 -0.3 c7.8 -0.6 17.3 4.5 20.6 10.9 0.9 1.7 1.5 5.6 1.5 9.8 0 6.5 -0.2 7.3 -3.2 10.7 -4.3 4.9 -8.3 6.4 -16.8 6.4 l-7 0 0.2 -18.7z"/>
  <path d="M593 316.1 c-9.5 -3 -16 -10.1 -16 -17.5 0 -3.4 0.2 -3.6 3.3 -3.5 1.7 0 8.2 1.5 14.2 3.2 l11 3.3 0 7.4 0 7.5 -5 0.2 c-2.7 0.1 -6.1 -0.2 -7.5 -0.6z"/>
  <path d="M179 298.1 c0 -3.7 1.9 -7.8 4.8 -10.5 1.9 -1.6 3.2 -1.7 12.2 -1.1 l10 0.7 0 3.2 c0 3 -0.3 3.2 -9.3 6.5 -5 1.8 -11.1 3.6 -13.4 3.8 -4.3 0.5 -4.3 0.5 -4.3 -2.6z"/>
  <path d="M585.7 293.7 l-10.8 -3.1 0.3 -6.5 0.3 -6.6 15.3 -0.3 15.2 -0.3 0 10.1 0 10 -4.7 -0.1 c-2.7 0 -9.7 -1.5 -15.6 -3.2z"/>
  <path d="M114 289 l0 -6 4.6 0 c2.6 0 6.4 0.5 8.5 1.2 3.6 1 3.9 1.4 3.9 4.8 0 3.6 -0.2 3.8 -4.4 4.9 -2.5 0.6 -6.3 1.1 -8.5 1.1 l-4.1 0 0 -6z"/>
  <path d="M142 286.1 c-0.5 -1.1 -1 -3.3 -1 -5 l0 -3.1 13.5 0 13.5 0 0 3.4 0 3.3 -8.9 1.7 c-12 2.2 -15.8 2.1 -17.1 -0.3z"/>
  <path d="M547.3 285.3 c-1.9 -0.4 -2.3 -1.1 -2.3 -3.9 l0 -3.4 8 0 8 0 0 4 0 4 -5.7 -0.1 c-3.2 -0.1 -6.8 -0.4 -8 -0.6z"/>
 </g>
 <g fill="#ffffff">
  <path d="M574.9 389.1 c-4.6 -1.5 -6.9 -3.1 -8.5 -6.4 -0.9 -1.8 -3.3 -5.1 -5.3 -7.3 -2 -2.3 -4.1 -5.2 -4.8 -6.5 -7 -14.8 -7.6 -17.6 -4.6 -21.8 1.5 -2.2 1.7 -2.3 2.9 -0.7 1 1.5 1.8 1.6 5.3 0.6 6 -1.6 8.9 0.1 12.6 7.5 3.2 6.4 7.1 9.8 13.4 11.5 4.8 1.3 10.4 1.3 13.6 -0.2 3.2 -1.4 4.5 -5.6 2.1 -7.3 -1.2 -0.9 -1.6 -2.8 -1.6 -7.6 0 -4.9 0.3 -6 1.2 -5.1 2.1 2.1 2.8 1.3 2.8 -3.2 0 -6.7 -0.6 -7.6 -5.4 -7.6 -2.2 0 -7.2 -1.1 -11.1 -2.4 -4.4 -1.5 -6.2 -1.9 -5 -0.9 1.1 0.8 3.1 2.3 4.5 3.4 l2.5 2 -2.5 -0.6 c-6 -1.5 -13.9 -6.3 -19.4 -11.7 -6 -5.8 -7.1 -8.7 -1.9 -5.1 5.3 3.7 5.8 3.7 2.7 0.1 -4.5 -5.2 -9.3 -15.5 -10 -21.5 -0.5 -3.9 -1.1 -5.3 -2.5 -5.6 -3.1 -0.8 -2.4 -9.7 0.7 -9.7 0.8 0 1.4 -0.4 1.4 -1 0 -0.5 -0.7 -1 -1.5 -1 -1.8 0 -1.9 -1.2 -0.5 -6.2 1 -3.3 1.4 -3.6 5.8 -4.2 6.6 -0.9 10.1 -1 15 -0.1 3.4 0.6 4.2 1.2 4.2 2.9 0 1.1 0.3 3.1 0.6 4.2 0.4 1.6 0 2.3 -1.4 2.6 -1.5 0.4 -2 1.4 -2 4.2 0 2.4 0.5 3.6 1.4 3.6 0.7 0 1.6 1.2 2 2.8 0.3 1.5 1 3.7 1.5 5 1.3 3.2 1.2 3.5 -1.1 2.9 -2.4 -0.6 -2.4 -0.4 -0.6 3.1 3.1 6 10.9 11.1 17.4 11.5 3.6 0.2 3.7 0.1 4 -3.8 0.2 -2.5 -0.1 -4.3 -1.1 -5 -0.8 -0.5 -1.7 -3.1 -2.1 -5.7 -0.7 -4.4 -0.6 -4.8 1.3 -4.8 1.9 0 2.1 -0.6 2.1 -7 0 -5.8 -0.3 -7 -1.6 -7 -1.3 0 -1.5 -0.7 -1 -3.2 1.2 -5.9 2.9 -6.8 13.2 -6.8 8.8 0 9.4 0.1 11.3 2.6 1.7 2.1 2.1 3.9 1.9 8.8 -0.1 4.9 -0.2 5.3 -0.5 1.9 -0.2 -2.4 -0.8 -4.3 -1.4 -4.3 -0.5 0 -0.9 5 -0.9 11.5 0 9.4 0.3 11.7 1.5 12.1 2.1 0.8 2.1 10.4 0.1 10.4 -2.1 0 -2.8 49.7 -0.8 52.2 1.3 1.6 1.2 4.3 -0.5 10.1 -0.4 1.7 -0.6 1.7 -2.3 0.2 -1.7 -1.5 -1.9 -1.5 -2.5 0.4 -1 3.2 -9.2 9 -15.4 10.7 -4 1.2 -8 1.5 -14.8 1.2 -7.7 -0.4 -9.3 -0.3 -8.9 0.8 0.6 1.5 -1.4 1.7 -5.5 0.5z"/>
  <path d="M499.1 377.4 c-1.7 -1.4 -3.6 -4.4 -4.3 -6.6 l-1.2 -4.1 -1.2 3.4 c-2 5.4 -1.8 -26.6 0.1 -34.6 0.8 -3.3 1.8 -10 2.2 -15 0.6 -8.3 0.5 -8.9 -1 -7.6 -1.6 1.2 -1.7 0.8 -1.7 -5.4 0 -4.9 0.5 -7.4 1.6 -8.6 2.6 -2.9 0.8 -3.9 -7.2 -3.9 -12 0 -17.4 -3.6 -17.4 -11.6 0 -2.7 0.8 -4.4 3.3 -6.8 l3.2 -3.3 21.4 -0.6 c36.9 -1.2 45.5 -1 47.4 1.1 2 2.2 3.1 9 2.3 13.8 -0.6 3.2 -1 3.6 -3.2 3.1 -1.4 -0.2 -2.9 0.2 -3.6 1.1 -1.7 2 -7.1 4.2 -10.5 4.2 l-2.8 0.1 2.5 1.4 c2.4 1.4 2.2 1.4 -3.7 1.5 -5.6 0 -6.3 0.2 -6.3 2 0 1.1 -0.7 2 -1.5 2 -1 0 -1.5 1 -1.5 2.9 0 1.6 0.7 3.4 1.5 4.1 1 0.8 1.5 3.1 1.5 6.6 0 4.3 -0.3 5.2 -1.5 4.8 -1.2 -0.5 -1.5 0.5 -1.5 5.7 0.1 3.7 0.7 7.5 1.5 8.9 1 1.8 1.4 6 1.4 15.5 0 12 -0.2 12.7 -1.4 9.5 l-1.3 -3.5 -0.1 4.5 c-0.2 7.6 -1.8 12.3 -5.1 15.3 -3.9 3.4 -7.9 3.5 -11.9 0.1z"/>
  <path d="M364.4 377.9 c-1.1 -0.6 -2.8 -2.3 -3.7 -3.9 -1.5 -2.4 -1.5 -2.9 -0.2 -4 1.3 -1.1 1.5 -7.7 1.5 -47 l0 -45.7 2.3 -3.4 c1.3 -1.9 3.8 -3.9 5.7 -4.6 5 -1.7 17 -1.6 22.1 0.2 10.3 3.6 19.7 13 22.9 22.9 0.7 2.2 1.3 7.1 1.2 10.9 0 5.6 -0.6 8 -3.1 13.2 -2.8 5.6 -9.9 13.5 -12.2 13.5 -0.4 0 0.8 2.5 2.6 5.6 3.5 5.7 6.9 14.9 8 21.6 0.5 2.6 1.1 3.5 2.1 3.1 1.1 -0.4 1.4 0.6 1.4 4.3 0 4.4 -0.4 5.2 -3.4 7.6 -1.9 1.5 -5.6 3.2 -8.2 3.8 -5.5 1.3 -7 0.4 -8 -4.8 -0.5 -2.5 -0.3 -3.2 1 -3.2 2.3 0 2.1 -5.6 -0.4 -13.1 -2.5 -7.2 -5.9 -12.9 -9.6 -15.8 -5.2 -4.1 -5.4 -3.5 -5.4 13.7 0 12.4 -0.3 16.2 -1.5 17.8 -2.1 2.8 -1.8 3.5 1.3 2.8 2.5 -0.7 2.6 -0.6 1.2 1.2 -0.8 1 -2.2 2.4 -3 3.1 -1.8 1.5 -11.7 1.6 -14.6 0.2z m2.8 -3.1 c-0.9 -0.9 -1.5 -0.9 -2.4 0 -0.9 0.9 -0.7 1.2 1.2 1.2 1.9 0 2.1 -0.3 1.2 -1.2z m25.1 -59.2 c1.8 -0.7 4.7 -3 6.5 -5 7.1 -8.1 2.4 -19.3 -10.2 -24.1 -7.5 -2.9 -7.6 -2.7 -7.6 15 l0 15.5 4 0 c2.2 0 5.5 -0.6 7.3 -1.4z"/>
  <path d="M335.8 376.4 c-3.9 -2.1 -3.5 -2.7 1.5 -2 4.1 0.7 4.1 0.6 1.6 -0.8 -3.1 -1.8 -5.2 -6 -7 -13.9 l-1.2 -5.8 -6.1 0.3 -6.1 0.3 -1.3 6.3 c-1.3 5.8 -1.3 6.4 0.3 7.6 1.7 1.2 1.7 1.4 0 4.4 -2.2 3.7 -4 4.6 -6.5 3.2 -1 -0.6 -3.3 -1 -5 -1 -2 0 -4 -0.9 -5.6 -2.5 -1.3 -1.3 -3.3 -2.9 -4.4 -3.5 -1.6 -0.9 -2 -2.1 -2 -6.1 0 -4.1 0.3 -5 1.4 -4.6 1.8 0.7 0.9 4.2 10.7 -39.3 4.8 -21.8 8.9 -37.8 10.1 -39.8 2.1 -3.5 6.4 -6.2 9.7 -6.2 1.2 0 3.5 1.2 5.2 2.8 3.1 2.8 5 9.1 11.8 41.2 1 4.7 3.7 16.4 6 26 4.5 18.6 4.7 23.4 1.4 27.8 -1.1 1.4 -3.5 3.1 -5.4 3.8 l-3.4 1.2 3.3 0.1 c1.7 0.1 3.2 0.6 3.2 1.1 0 1.5 -9.2 1.1 -12.2 -0.6z m-10.2 -40.2 c0.7 -0.5 0.8 -1.8 0.1 -4.2 -0.8 -3.1 -1 -3.2 -1.8 -1.5 -1 2.6 -1.1 6.5 -0.1 6.5 0.4 0 1.2 -0.4 1.8 -0.8z"/>
  <path d="M183.4 375.4 c-0.7 -0.3 -1 -1.3 -0.7 -2.4 0.4 -1.3 -0.4 -2.3 -3.1 -3.5 -3.9 -1.9 -11 -9.1 -12.8 -13 -1 -2.3 -1.3 -2.4 -2.8 -1 -1.5 1.4 -1.8 1 -3.4 -4.1 -1.3 -4.2 -1.5 -5.9 -0.6 -6.9 1.6 -2 -0.9 -20.8 -2.7 -20.1 -2.2 0.9 -1.7 -10 0.5 -11.6 1.2 -0.8 2.7 -4.6 4 -9.9 1.2 -4.7 2.4 -9.3 2.7 -10.2 0.5 -1.2 0.2 -1.4 -1.4 -1 -1.2 0.3 -2.1 0.3 -2.1 0.1 0 -1.4 3.7 -7.8 6.6 -11.5 5.7 -7 8.2 -8 22.6 -8.8 12.1 -0.7 12.8 -0.6 18.1 1.8 11.3 5.2 17.1 13.6 19.7 29 0.7 4 1.9 7.2 3.1 8.3 1.5 1.3 1.9 3.1 1.9 8.2 0 5.3 -0.2 6.2 -1.4 5.3 -1.1 -0.9 -1.4 0.7 -1.9 9.1 -0.3 6.2 -1.3 12.5 -2.5 15.8 -1.4 4.2 -1.7 6.2 -0.9 8.3 0.8 2.5 0.5 3.3 -2.4 6.3 -3.6 3.7 -4.9 4.2 -4.9 1.9 0 -2 -0.1 -2 -6 2 -5.7 3.8 -10.6 5.5 -16.3 5.5 -2.4 0 -4 0.5 -4.3 1.5 -0.6 1.4 -6.3 2 -9 0.9z m19.8 -20.7 c1.4 -1.1 3.8 -4.2 5.3 -6.9 2.4 -4.3 2.6 -5.5 1.9 -9.6 -1 -5.8 -0.5 -20.4 0.7 -21.6 1.2 -1.3 1.2 -2.9 -0.1 -2.1 -0.9 0.6 -1.4 -0.8 -2.3 -6.8 -0.4 -2.2 0 -3 1.7 -3.7 2.1 -0.8 2.1 -0.8 -0.4 -1.9 -1.4 -0.7 -3.3 -3 -4.4 -5.1 -1 -2.1 -2.6 -4.2 -3.5 -4.5 -1.3 -0.5 -1.4 -0.7 -0.1 -1.5 1.1 -0.7 0.8 -1 -1.5 -1 -1.6 -0.1 -5 -0.3 -7.4 -0.6 -4.9 -0.5 -7.2 0.9 -9.7 5.8 -1.6 3.1 -1.3 3.3 1.8 1.7 1.7 -0.9 2 -0.9 1.5 0.2 -0.3 0.8 -1.6 3.9 -2.9 6.9 -1.3 3 -2.6 5.6 -2.9 5.8 -2.9 1.3 -3.9 3.4 -4.5 9.2 -0.6 5.9 -0.6 6.4 0.9 5.2 1.4 -1.2 1.7 -1.1 2.1 1 1.5 7.6 1.6 9.2 0.1 10.8 -1.4 1.6 -1.3 2.4 1 8.6 2.5 6.6 4.9 10.4 6.7 10.4 0.4 0 0.8 -0.7 0.8 -1.5 0 -1.9 0.9 -1.9 3.4 0 1.1 0.8 2.9 1.2 4.2 0.9 1.9 -0.5 2.2 -0.3 1.7 1.5 -0.4 1.8 -0.2 2 1.3 1.4 1.1 -0.4 3.1 -1.5 4.6 -2.6z"/>
  <path d="M105 374.3 c-0.8 -0.3 -2.5 -1.7 -3.7 -3.1 -1.7 -2.1 -2.4 -2.3 -3.6 -1.4 -1.2 1 -1.6 0.9 -2.1 -0.4 -1.2 -3.1 -0.6 -10.1 0.9 -11.4 2.3 -1.9 2.3 -49.2 0 -48.4 -1.2 0.5 -1.5 -0.4 -1.5 -4.5 0 -3.7 0.4 -5.3 1.5 -5.7 2.2 -0.9 2.2 -20.4 0 -20.4 -1.9 0 -1.9 -1.4 0.1 -5.5 l1.5 -3.3 11.3 -0.7 c7.2 -0.5 12.6 -0.3 15.1 0.4 2.2 0.6 6.3 1.1 9 1.1 4.4 0 5.6 0.5 9.8 4.1 5.1 4.4 5.8 5.9 2.7 5.9 -1.8 0 -1.9 0.3 -0.9 2.1 0.7 1.5 1.8 2 3.4 1.7 1.9 -0.4 2.6 0.2 3.9 3.6 1.4 3.5 1.4 4.2 0.2 5.1 -1 0.8 -1.4 3.3 -1.4 8.6 0 5.5 -0.5 8.9 -2 12.3 -2.2 5 -1.9 5.5 1.7 3 l2.3 -1.6 -2.1 4 c-5 9.8 -11.9 14.6 -27.8 19.3 -3.2 1 -3.3 1.1 -3.3 6.8 0 4 -0.5 6.3 -1.5 7.1 -1 0.9 -1.5 3.1 -1.5 7.2 0 10.3 -5.2 16.5 -12 14.1z m17.1 -36 c2.1 -1.6 3.9 -3.1 3.9 -3.4 0 -0.4 -2 0 -4.5 0.9 -3.2 1 -4.5 2 -4.5 3.3 0 2.5 0.5 2.4 5.1 -0.8z m6.5 -23.2 c6.9 -3.2 10.6 -9.8 8.5 -15.4 -0.7 -1.8 -1.5 -2.5 -2.5 -2.1 -0.9 0.3 -3.2 -0.8 -5.5 -2.8 -4.3 -3.5 -5 -4.8 -2.6 -4.8 2.9 0 1.5 -1.7 -2.4 -2.8 -6.1 -1.9 -7.1 -1.6 -7.1 1.8 0 2 0.5 3 1.5 3 1.1 0 1.5 1.2 1.5 4.9 0 3.4 -0.4 5.1 -1.5 5.5 -1.1 0.4 -1.5 2.2 -1.5 7.6 l0 7 3.8 0 c2 0 5.5 -0.9 7.8 -1.9z"/>
  <path d="M246.5 371.8 c-4.7 -3.7 -5.5 -7.2 -5.5 -24.1 0 -12.5 -0.3 -15.7 -1.5 -16.7 -1.1 -0.9 -1.5 -3.2 -1.5 -7.7 0 -5.7 0.2 -6.4 1.5 -5.3 1.3 1.1 1.5 -0.6 1.5 -14.1 0.1 -8.5 0.5 -17.4 0.9 -19.8 2.3 -11.9 15.4 -12.9 19.2 -1.3 0.8 2.4 0.9 10.5 0.4 28.1 -0.6 22 -0.6 24.8 0.9 26 2.3 1.9 2.3 12.6 0 11.7 -1.2 -0.5 -1.5 0.2 -1.2 3.7 l0.3 4.2 6 0.3 5.9 0.3 -1.9 -2.2 -2 -2.2 6.9 0.8 c3.8 0.4 7.4 0.9 8 1.1 1.7 0.6 3.2 3.5 4.1 7.3 0.6 2.9 0.5 3.2 -1.2 2.7 -1.5 -0.5 -1.9 0 -2.1 2.1 -0.1 1.5 -0.9 3.7 -1.7 5 -1.5 2.2 -1.9 2.3 -17.9 2.3 -15.2 0 -16.5 -0.1 -19.1 -2.2z"/>
  <path d="M435.9 371.1 c-1.6 -1.6 -3.2 -4.3 -3.5 -6 -0.4 -1.7 -1.3 -3.1 -2 -3.1 -2 0 -2 -10.6 0.1 -11.3 1.2 -0.5 1.5 -6.2 1.7 -36.4 0.3 -40 0.3 -39.9 7.4 -42.9 2.9 -1.2 3.9 -1.2 6.8 0 6.3 2.6 6.6 4.2 6.6 35.2 0 24.1 0.2 27.5 1.5 27 1.2 -0.4 1.5 0.5 1.5 5.3 0 4 -0.5 6.3 -1.5 7.1 -1.1 0.9 -1.5 3.4 -1.5 9.7 0 4.9 -0.6 9.7 -1.4 11.7 -2.9 7.1 -10.5 8.8 -15.7 3.7z"/>
  <path d="M460.5 255.1 c-9.9 -2.5 -16.4 -10.9 -16.8 -21.6 -0.2 -4.4 0.2 -5.8 2.2 -7.9 2.4 -2.5 5.3 -3.2 8.6 -2 1.9 0.8 4.5 5.5 4.5 8.3 0 4.8 5.4 6.4 11.6 3.5 3.2 -1.5 3.3 -1.8 1.9 -3.3 -1.3 -1.6 -1.2 -2 2 -5.1 2.7 -2.7 3.7 -3.1 4.9 -2.1 1.1 0.9 1.6 0.6 2.5 -2 1.3 -3.7 1.4 -7.9 0.3 -9.7 -0.5 -0.7 -4.6 -2.2 -9.3 -3.3 -4.6 -1.1 -10.2 -3 -12.4 -4.3 -4.6 -2.8 -9.9 -9.6 -12.1 -15.8 -2.1 -5.9 -2 -17.5 0.2 -24 2.3 -7.1 10.1 -14.9 16.7 -16.7 3.3 -1 4.6 -1.8 4.3 -2.7 -0.6 -1.6 2.1 -1.8 7.4 -0.8 2.1 0.5 3.5 1.5 4.1 3.2 0.5 1.4 2.9 4.2 5.2 6.2 3.9 3.5 4.2 4.1 4.2 9 0 4.2 -0.4 5.5 -2.4 7.1 -3.3 2.7 -6.8 2.4 -10.8 -1.1 -4.2 -3.7 -8.4 -3.9 -11.8 -0.6 -4.8 4.8 -4.5 12.6 0.8 18.1 2.6 2.8 4.4 3.6 9.7 4.5 3.6 0.7 8.5 2.1 10.9 3.3 13.5 6.5 15.9 27.2 5 43.2 -8.1 12 -21.5 19.1 -31.4 16.6z"/>
  <path d="M516.4 254.1 c-2.7 -0.5 -5.5 -3.1 -7 -6.8 -2.2 -5 -2 -86.2 0.1 -90.3 1.5 -3 6.1 -6 9 -6 0.8 0 1.5 -0.7 1.5 -1.5 0 -1.1 1.2 -1.5 5 -1.5 3.8 0 5 0.4 5 1.5 0 1.3 2.3 1.5 14.5 1.5 13.4 0 14.7 0.2 16.6 2.1 1.7 1.7 2 3.1 1.7 7.5 -0.1 3 -0.2 5.4 -0.1 5.4 0.1 0 0.9 -1.2 1.7 -2.7 l1.5 -2.8 0.1 3.3 c0 5 -2.6 9.1 -5.8 9.2 -1 0 -1 -0.5 -0.1 -2.2 1 -1.8 0.9 -2 -0.6 -1.5 -0.9 0.4 -8.4 0.7 -16.6 0.7 l-14.9 0 0 12.5 0 12.5 9 0 c7.1 0 9.2 -0.3 9.6 -1.5 0.5 -1.1 2.1 -1.5 6.1 -1.5 4.9 0 5.4 0.2 4.8 1.8 -0.4 0.9 -0.7 2.2 -0.6 2.7 1.4 8.2 1.1 12.2 -0.9 14.8 -1.8 2.3 -2.9 2.7 -7 2.7 -3 0 -5.2 0.5 -6 1.5 -0.8 1 -3.1 1.5 -6.6 1.5 l-5.4 0 0 6.4 c0 4.8 -0.4 6.5 -1.5 7 -0.8 0.3 -1.5 1.5 -1.5 2.6 0 1.8 0.6 2 5.3 2 3 -0.1 6 -0.7 7.1 -1.5 1.4 -1.1 4.5 -1.5 11 -1.4 6.8 0 8.7 0.3 7.5 1.1 -1.3 0.9 -1.1 1.4 1.3 3.8 1.5 1.6 2.8 3.6 2.8 4.4 0 0.9 0.7 1.6 1.5 1.6 1.1 0 1.5 1.1 1.5 3.8 0 6.8 0.5 6.6 -24.8 7.2 -12.6 0.3 -23.8 0.3 -24.8 0.1z m14.1 -38.1 c1.8 -1.9 1.7 -2 -0.3 -2 -1.5 0 -2.2 0.6 -2.2 2 0 1.1 0.2 2 0.3 2 0.2 0 1.2 -0.9 2.2 -2z"/>
  <path d="M386.3 251.8 c-4.2 -4.7 -4.3 -5.5 -4.3 -41.7 0 -30.5 -0.2 -35.1 -1.5 -35.1 -1.1 0 -1.5 -1.1 -1.5 -4 0 -2.9 0.4 -4 1.5 -4 1.2 0 1.5 -1.3 1.5 -5.7 0 -6.3 2.3 -11.3 6 -13.3 6.9 -3.7 20.5 -3 29.9 1.6 14.2 7 22.8 23.7 19.1 37.3 -1 3.9 -1 4.7 0.4 5.7 1.7 1.2 1.4 3.1 -1.2 7.1 -1.1 1.7 -1.8 2 -3.2 1.3 -1.3 -0.7 -2.2 -0.4 -3.6 1.1 -1 1.1 -3.3 2.9 -5.1 4 -3.2 2 -3.3 2.2 -1.8 4.3 5.8 8 10.5 21.9 10.8 31.9 0.2 6.4 0 7 -2.6 9.3 -3.6 3.1 -5.2 3 -8.6 -0.4 -2.3 -2.2 -2.9 -3.9 -3.4 -9.7 -0.5 -5.1 -1.6 -9 -4.2 -14.2 -3.4 -6.8 -8.4 -12.3 -11.3 -12.3 -0.9 0 -1.2 3.9 -1.2 13.4 0 16.2 -0.5 18.8 -4 22.6 -3.5 3.8 -8.6 4.1 -11.7 0.8z m26.8 -58.5 c3.8 -1.5 4 -1.7 2.4 -2.9 -1.7 -1.2 -1.6 -1.5 1.1 -4.8 1.9 -2.2 3.5 -3.3 4.7 -2.9 1.3 0.3 1.7 -0.2 1.7 -2.7 0 -3.7 -1.9 -7.7 -5.2 -10.7 -2.9 -2.7 -10.5 -6.2 -13.5 -6.3 -2.1 0 -2.3 0.5 -2.3 5 0 3.6 0.4 5.2 1.5 5.6 1.1 0.5 1.5 2.1 1.5 6 0 4.3 -0.3 5.2 -1.5 4.8 -1.2 -0.5 -1.5 0.4 -1.5 5 l0 5.6 3.5 0 c1.9 0 5.3 -0.7 7.6 -1.7z"/>
  <path d="M320.1 251.8 c-1 -0.3 -2.8 -2.2 -4 -4.1 -2 -3.3 -2.1 -4.5 -2.1 -34.1 0 -30.3 0 -30.7 -2 -30.1 -1.8 0.6 -2 0.2 -2 -4.9 0 -3.6 0.5 -5.8 1.4 -6.3 0.8 -0.5 1.5 -3.4 1.8 -8 1 -14.2 3.3 -15.3 31.2 -15.3 l20.5 0 2.1 2.7 c1.9 2.3 2.1 3.7 1.7 8.1 -0.4 4.1 -0.3 5.2 0.9 5.2 2 0 1.8 2.4 -0.4 4.3 -1.6 1.4 -4.3 1.7 -16.8 1.7 -14.4 0 -15 0.1 -17.1 2.4 -2.4 2.5 -2.7 5.2 -1.7 14.4 l0.7 5.2 12.6 0 c6.9 0 13.1 0.4 13.7 0.8 3.7 2.4 4.4 10 1.4 15 l-2 3.2 -13 0 -13 0 0 10.5 0 10.5 15 0 c13.6 0 15.2 0.2 17 2 2.7 2.7 3.5 6.5 2.1 11 -1.9 6.4 -2.1 6.5 -25.3 6.5 -11.5 0 -21.7 -0.3 -22.7 -0.7z"/>
  <path d="M152.9 247.3 c-3 -3.5 -3.1 -3.8 -1.2 -4.1 1.8 -0.3 1.9 -0.8 1.5 -5.5 -0.2 -2.9 -1 -5.7 -1.8 -6.3 -0.9 -0.7 -1.4 -3.1 -1.4 -6.7 0 -4.6 0.3 -5.5 1.5 -5.1 1.3 0.5 1.5 -1.5 1.5 -14.7 -0.1 -11.5 -0.4 -16 -1.5 -17.9 -1 -1.7 -1.4 -5.6 -1.4 -12 0 -8.7 0.1 -9.3 1.4 -7 1.4 2.4 1.4 2.4 1.5 -2.3 0.1 -12.9 9 -18.9 16.6 -11.3 l3.4 3.4 0 22.9 c0.1 18.5 0.3 23.2 1.5 24.7 1 1.3 1.5 4.4 1.5 9.4 0 6.5 -0.2 7.3 -1.5 6.2 -1.3 -1.1 -1.5 -0.4 -1.5 5.8 0 5.3 0.4 7.1 1.5 7.6 1.9 0.7 2 5.6 0.1 10 -2.1 5 -5.1 6.6 -12.2 6.6 -5.9 0 -6.3 -0.2 -9.5 -3.7z"/>
  <path d="M267.6 247.6 c-2.6 -2.7 -3.6 -5.2 -5.4 -13.2 -3.7 -16.3 -4.1 -17.7 -5.7 -16.4 -1.1 0.9 -1.6 0.4 -2.4 -2.7 -1.4 -5.1 -1.4 -7 0.3 -8 1.1 -0.6 0.4 -4.7 -3.6 -21.3 -5.6 -23.9 -5.8 -27.9 -0.9 -32.2 3.7 -3.3 7.2 -3.6 11.1 -0.8 3.4 2.4 3.8 3.7 8.6 24 1.9 8.5 3.8 15.7 4 15.9 1.2 1.2 2.5 -2.6 5.4 -14.9 5 -21.9 5.7 -23.8 9.3 -26 4.2 -2.6 5.9 -2.5 9.6 0.6 4.3 3.6 5.4 8.4 3.6 15.9 -1.9 7.9 -1.9 9.9 0 9.1 1.8 -0.7 1.8 -0.2 0.3 6.2 -0.7 3.4 -1.8 5.3 -3.2 6 -1.8 0.8 -3 4.5 -8 26.3 -3.2 14 -6.4 26.6 -7.2 28.1 -3.8 7.3 -10.8 8.8 -15.8 3.4z"/>
  <path d="M182.1 246.1 c-0.5 -0.9 -1.1 -3.3 -1.5 -5.3 -0.6 -3.2 -0.4 -3.7 0.9 -3.2 1.2 0.5 1.5 -0.2 1.5 -3.4 0 -2.2 -0.6 -4.5 -1.4 -5.1 -0.9 -0.7 -1.3 -3.6 -1.4 -8.8 0 -5.6 0.2 -7.3 0.9 -6 2.6 4.5 2.9 0.7 2.9 -30.4 l-0.1 -32.2 2.8 -1.8 c3.3 -2.2 6.3 -2.5 6.3 -0.5 0 0.8 1.3 1.7 2.9 2.1 5.1 1.1 7.4 4.6 14.1 20.8 l6.5 15.8 1 -16 c1 -15.5 1.1 -16.2 3.7 -18.7 1.9 -1.9 3.8 -2.8 6.4 -2.8 2.1 -0.1 3.9 -0.7 4.2 -1.4 0.7 -2.1 2.9 -1.3 5.6 1.8 2.2 2.7 2.4 3.4 1.4 5.8 -0.7 1.7 -1.3 14.1 -1.6 33.6 -0.4 28.2 -0.3 30.8 1.2 30.3 1.4 -0.5 1.6 0.3 1.6 5.5 0 3.6 -0.5 6.8 -1.3 7.7 -0.8 0.9 -1.9 3.5 -2.6 5.9 -1.4 5 -4.4 7.3 -10.7 8 -6.6 0.7 -8.9 -2 -15.5 -18 -6.2 -15 -6.6 -14.9 -6.8 2.5 -0.1 9.5 -0.2 10 -3 12.8 -2.7 2.7 -3.4 2.9 -10 2.7 -5.5 -0.1 -7.4 -0.5 -8 -1.7z"/>
  <path d="M457.4 208.5 c-2.3 -1.3 -4.9 -3.7 -5.9 -5.1 -1.4 -2.2 -0.6 -1.8 4.4 2 5.3 4.1 6.9 5.6 5.9 5.6 -0.2 0 -2.2 -1.1 -4.4 -2.5z"/>
 </g>
 <g fill="#d0a83f">
  <path d="M81 538.1 c0 -3.2 5.9 -28.6 10.1 -43.5 2.2 -7.6 3.8 -14 3.7 -14.2 -0.2 -0.1 -2.2 0.2 -4.4 0.8 -2.3 0.6 -4.9 0.8 -6 0.4 -1.6 -0.6 -0.5 -2 7.3 -9.2 8.4 -7.8 9.3 -9 11.3 -15.2 7 -21.3 25.8 -62.8 37.5 -82.9 6.2 -10.5 19.1 -30 20.5 -30.8 0.5 -0.3 1.6 1.8 2.5 4.7 l1.7 5.3 -5.4 8 c-10.7 15.6 -22.5 37.6 -33.1 61.5 -8.1 18.5 -16.9 42.7 -16.3 44.7 0.9 2.8 3.6 18.5 3.6 21.1 0 3.3 -2 2.7 -6.1 -2 l-3.6 -4.2 -4.1 15 c-2.3 8.2 -5.3 20.1 -6.7 26.4 -1.4 6.3 -2.8 12.5 -3 13.8 -0.5 1.9 -1.2 2.2 -5 2.2 -3.8 0 -4.5 -0.3 -4.5 -1.9z"/>
  <path d="M623 539.3 c0 -1.8 -7.3 -31.8 -10.7 -44.1 -3.4 -12.5 -3.8 -13.4 -7.7 -16.6 -2.3 -1.8 -5.6 -4.1 -7.4 -5 -4.6 -2.4 -3.6 -4.2 2.2 -3.8 2.7 0.2 4.6 -0.1 4.6 -0.8 0 -1.7 -9.6 -27.2 -15.5 -41.2 -3.1 -7.3 -9.8 -21.4 -14.9 -31.4 l-9.3 -18 5.1 3.3 c2.7 1.9 6.1 3.7 7.5 4 2.2 0.4 3.7 2.7 9 13.6 7.6 15.8 18.3 41.1 23.6 56 l3.8 10.8 2.7 -2.6 c5.9 -5.7 7.5 -1.9 4.4 11.2 -1.8 7.9 -1.9 7.1 3.6 27.8 2.3 8.8 5.3 20.8 6.5 26.8 l2.3 10.7 -4.9 0 c-2.7 0 -4.9 -0.3 -4.9 -0.7z"/>
  <path d="M201.8 538 c-2.7 -1.6 -10.5 -23.2 -14.9 -41.5 -1.2 -4.9 -2.3 -9.2 -2.5 -9.4 -0.1 -0.1 -2.1 0.7 -4.3 2 -6.6 3.7 -7.1 2 -2.8 -11.4 3.7 -11.4 3.7 -11.4 2.5 -19.8 -0.6 -4.6 -1.2 -19.6 -1.2 -33.4 -0.1 -23.6 0.7 -34 3.5 -48.2 1 -5 1.1 -5.2 3.5 -4.3 1.4 0.6 3.6 1 4.9 1 2.2 0 2.3 0.2 1.4 3.3 -3.6 12.5 -5.4 56.5 -3.1 75.7 0.9 6.8 1.5 8.3 6.6 15.7 3.1 4.5 7 9.3 8.6 10.7 3.3 2.7 3.9 6 1.4 7 -0.8 0.3 -3.6 0.1 -6 -0.5 -2.5 -0.7 -4.7 -0.9 -5.1 -0.6 -1.3 1.3 6.3 27.2 13.4 45.9 1.7 4.5 1.7 4.7 -0.1 6.7 -2.1 2.3 -3.3 2.5 -5.8 1.1z"/>
  <path d="M505.9 537.1 l-2.4 -1.9 1.9 -4.9 c4.7 -12.1 9.1 -25.6 11.7 -36 l2.8 -11.4 -2.5 -7.1 c-1.3 -3.9 -2.4 -7.7 -2.4 -8.5 0 -1.8 2 -1.6 4.2 0.4 1 0.9 2 1.4 2.3 1.1 1.1 -1.1 2.5 -12.6 3.6 -29.2 1.7 -26.6 -0.9 -55.2 -6.7 -75.4 -1.9 -6.6 -2.4 -10.5 -2.4 -19.5 l0.1 -11.2 3.1 6 c5.8 11.3 10.5 27.4 13.5 46.5 1.4 9 1.8 17.3 1.8 38 -0.1 23.8 -0.6 32.3 -3.1 45.8 l-0.6 3.3 3.3 -2 c7.3 -4.5 8 -1.7 2.2 8 -2.5 4.1 -5.4 8.3 -6.4 9.5 -1 1.1 -3.5 7.7 -5.4 14.7 -4.5 16.4 -11.1 33.4 -13.5 34.7 -2.4 1.3 -2.4 1.3 -5.1 -0.9z"/>
  <path d="M342 494 c-26.7 -3.7 -58.8 -24.3 -81.6 -52.2 -3.1 -3.7 -6 -6.8 -6.4 -6.8 -0.4 0 -1.3 1.4 -2 3 -0.7 1.7 -2 3 -3 3 -1.5 0 -1.8 -1.4 -2.5 -9.2 -0.6 -8.7 -1 -9.9 -5.6 -17.9 -6.8 -11.9 -14.1 -27.4 -18.7 -39.9 l-4 -10.4 3.6 -4.2 3.6 -4.1 4.8 13.1 c4.9 13.4 13.8 32.3 20.4 43.3 3.5 5.9 4.2 6.4 10.5 8.8 3.7 1.5 7.3 3.3 7.9 4 1.9 2.3 0.4 4.5 -3 4.5 -1.6 0 -3 0.3 -3 0.6 0 1.4 13.6 16.7 19.8 22.5 25.1 22.9 51.1 33.9 77.6 32.6 25.6 -1.2 50.1 -13.3 72.7 -35.7 14.9 -14.8 15.7 -16.1 17 -26.1 1.9 -14.5 2 -14.9 3.3 -14.9 0.8 0 2.5 1.9 3.9 4.2 l2.5 4.2 2.1 -3.4 c4.4 -7.2 14.1 -26.9 17.9 -36.5 5.2 -13.1 7.7 -20.8 11.2 -34.6 l2.9 -11.4 0.1 17.7 c0 17.1 -0.1 17.9 -2.9 25.5 -4.8 13 -10.9 26.2 -17.2 37 -3.2 5.7 -5.9 10.5 -5.9 10.7 0 0.3 2.6 0.6 5.7 0.8 8.1 0.4 8.1 2.4 0.1 6.6 -13.7 7 -17.7 10.1 -31.8 24.2 -15.1 15.2 -22.5 20.8 -39.6 30.4 -13.2 7.4 -25.1 10.5 -41.9 11.1 -6.6 0.2 -14.9 0 -18.5 -0.5z"/>
  <path d="M10.8 445.9 c-1 -0.6 -1.8 -2.2 -1.8 -3.7 0 -2.2 3.4 -6.1 17.5 -20.2 9.6 -9.6 17.1 -17.8 16.7 -18.2 -0.5 -0.5 -3.5 -1.3 -6.7 -1.8 -6.6 -1.1 -8.6 -2.3 -6.7 -4.2 0.8 -0.8 5.4 -1.4 12.5 -1.7 l11.2 -0.3 12 -10.7 c6.6 -5.9 16.6 -14.6 22.1 -19.3 l10.2 -8.7 0.5 5.7 0.5 5.7 -4.6 4 c-33.7 29 -31.9 27 -35.5 39.7 -2.8 9.9 -4.6 13.2 -6.4 11.5 -0.3 -0.4 -0.9 -3.2 -1.2 -6.4 l-0.7 -5.8 -18 17.8 c-9.9 9.7 -18.4 17.7 -19 17.7 -0.5 0 -1.7 -0.5 -2.6 -1.1z"/>
  <path d="M682.6 431.1 l-15.9 -15.9 -9.3 -2.2 c-5.1 -1.1 -9.8 -2.8 -10.4 -3.5 -2.2 -2.6 -0.4 -4.5 4.2 -4.5 l4.3 -0.1 -6 -5.5 c-3.3 -3 -11.1 -9.8 -17.2 -15.2 -11.1 -9.5 -11.3 -9.8 -10.7 -13.2 1.5 -7.8 0.9 -8 15.9 5.1 7.7 6.7 16.3 14.3 19 17 2.8 2.7 5.4 4.9 5.8 4.9 0.4 0 0.7 -1.1 0.7 -2.5 0 -3.6 2.1 -7.5 4 -7.5 1.8 0 4.5 6.6 7.6 18 1.4 5 2.7 6.7 15.5 19.5 11 11.1 13.9 14.6 13.9 16.7 0 2.5 -2.3 4.8 -4.7 4.8 -0.5 0 -8 -7.2 -16.7 -15.9z"/>
  <path d="M361.8 393.7 c-2 -1.2 -5.2 -3.5 -7.1 -5 -2.9 -2.3 -5 -3 -11.9 -3.7 -7.4 -0.8 -27.9 -6.6 -31.8 -9 -1.3 -0.8 -1.1 -1.2 0.7 -2.9 1.2 -1.2 2.6 -2.8 3.1 -3.7 0.8 -1.4 1.8 -1.3 9.8 1.4 4.9 1.7 12.6 3.8 17.2 4.6 9.2 1.8 10.7 1.4 17.1 -4 3.1 -2.6 3.2 -2.6 4.6 -0.8 0.8 1.1 1.3 2.6 1.1 3.6 -0.3 1.3 0.5 1.6 4.6 1.6 2.8 0.1 5.7 -0.3 6.7 -0.8 3.5 -1.8 21.3 -7 22.2 -6.4 0.5 0.3 0.9 1.1 0.9 1.9 0 0.7 1.1 2.2 2.5 3.3 l2.5 2 -10.8 3.5 c-5.9 2 -14.7 4.4 -19.7 5.3 -4.9 1 -9.2 1.9 -9.4 2 -0.2 0.2 0.6 1.5 1.8 3 2.3 3 2.8 6.4 0.9 6.4 -0.7 0 -3 -1 -5 -2.3z"/>
  <path d="M411.8 366.5 l0.4 -5.4 5.6 -3.2 c3.2 -1.7 7.6 -4.3 10 -5.6 l4.2 -2.5 0 5.9 -0.1 5.8 -10.2 5.2 -10.2 5.1 0.3 -5.3z"/>
  <path d="M291.3 366.7 c-3.5 -1.7 -6.3 -3.6 -6.3 -4.2 0 -2.4 -4.1 -5.5 -7.3 -5.5 -2.2 0 -5.4 -1.5 -9.9 -4.6 l-6.8 -4.6 0 -5.8 0 -5.8 10.8 7.2 c5.9 4 13.9 9.2 17.9 11.4 l7.1 4.2 0.4 5.2 c0.2 2.9 0.4 5.4 0.4 5.4 -0.1 0.1 -2.9 -1.2 -6.3 -2.9z"/>
  <path d="M545.7 350.4 c-7.4 -9.9 -20.1 -23.4 -26 -27.4 -3.5 -2.4 -3.7 -2.8 -3.7 -8.3 l0 -5.8 6.3 4.2 c7.4 5.1 21.3 18.8 28.5 28.3 4.3 5.6 5 7.2 4 8.4 -0.7 0.8 -1.5 3.3 -1.8 5.7 l-0.5 4.2 -6.8 -9.3z"/>
  <path d="M597 354.8 c-25.1 -20.4 -61.6 -44.5 -76.2 -50.4 -4.3 -1.7 -4.8 -2.2 -4.8 -5.1 l0 -3.3 5.3 0 c4.8 0 6.6 0.7 17.3 6.8 15.3 8.8 37.7 23.8 52.9 35.5 l12 9.3 -0.5 5.8 -0.5 5.9 -5.5 -4.5z"/>
  <path d="M188.8 356.9 c-1.6 -0.9 -1.6 -1.4 0.8 -7.7 4.2 -11.3 13.1 -25.1 20.3 -31.6 3 -2.7 2.6 -3.5 -1.3 -2.6 -6 1.3 -13.8 6.4 -22.3 14.3 -9.1 8.6 -8.3 8.7 -9.8 -0.5 -0.5 -3.5 -0.4 -3.8 6.7 -9.8 6.9 -5.8 20.1 -13.2 25.9 -14.5 2.5 -0.6 2.6 -0.4 3.3 4.1 0.8 6.2 0.6 21.8 -0.3 27.4 l-0.8 4.5 -0.8 -3.2 c-0.4 -1.8 -1.1 -3.3 -1.5 -3.3 -1.7 0 -12 19.6 -12 22.9 0 1.4 -5.9 1.4 -8.2 0z"/>
  <path d="M117 347.7 c0 -5.8 0.2 -6.4 2.9 -8 1.6 -0.9 3.9 -2.8 5.2 -4.2 1.3 -1.3 3.1 -2.5 3.9 -2.5 2.7 0 11.7 -5.8 14.7 -9.4 2.5 -3 15.2 -12.2 15.7 -11.4 0.1 0.2 0 2.8 -0.2 5.8 l-0.4 5.5 -6.6 4.5 c-3.7 2.5 -13.1 9.3 -20.9 15.2 l-14.3 10.7 0 -6.2z"/>
  <path d="M11.2 351.8 c-2.3 -2.3 -1.3 -5.5 2.9 -9.3 7.1 -6.4 24.9 -17.5 40.7 -25.3 l15.2 -7.5 -2.9 -1.4 c-1.5 -0.8 -4.1 -2.8 -5.7 -4.4 -2.4 -2.6 -2.6 -3.1 -1.3 -4.4 1.2 -1.3 2.4 -1.1 9.2 1 12.3 3.9 14.4 4 21.7 1.1 3.5 -1.4 6.5 -2.6 6.7 -2.6 0.2 0 0.3 2.3 0.1 5.2 l-0.3 5.1 -5 1.7 c-4.1 1.4 -6 2.9 -11 8.9 -6.8 8.2 -8.9 9.8 -11 8.1 -1 -0.8 -1.1 -1.9 -0.4 -4.3 0.5 -1.8 0.9 -3.3 0.9 -3.4 0 -0.1 -3.5 1.3 -7.7 3.3 -12 5.4 -28.3 15 -38.4 22.6 -9.1 6.8 -11.5 7.8 -13.7 5.6z"/>
  <path d="M693 349.9 c-5.2 -4.5 -16.3 -11.9 -26.6 -17.8 -9.2 -5.1 -9.2 -5.1 -18.2 -5.1 -14.9 0 -19 -1.9 -12.2 -5.8 1.6 -0.9 3 -2 3 -2.3 0 -0.4 -3.4 -1.9 -7.5 -3.5 l-7.5 -2.9 0 -5.2 0 -5.3 4.8 1.9 c2.6 1 7.3 3 10.5 4.4 6.4 2.9 6.3 3 4.6 -5.6 -0.9 -4.4 -0.9 -6 0.1 -7.2 0.7 -0.8 1.6 -1.5 2.1 -1.5 1.1 0 10.5 14.3 13.7 20.6 1.7 3.4 3.6 5 9.6 8.3 8.3 4.6 26.6 16.8 30.9 20.5 4.2 3.9 3.2 9.7 -1.7 9.6 -1.2 -0.1 -3.7 -1.5 -5.6 -3.1z"/>
  <path d="M453 340.6 c0 -3.6 0.4 -6.6 0.9 -6.6 1.7 0 17.6 -13.5 29.4 -24.9 l11.7 -11.4 0 7 0 7.1 -11.9 10.7 c-6.5 5.8 -16 13.8 -21 17.6 l-9.1 7 0 -6.5z"/>
  <path d="M235.3 327.2 c-5.1 -4.6 -5.2 -4.8 -5.5 -11.3 l-0.4 -6.7 5.8 5.2 5.8 5.1 0 6.3 c0 3.4 -0.1 6.2 -0.2 6.2 -0.2 0 -2.6 -2.2 -5.5 -4.8z"/>
  <path d="M178.7 306.7 c0.8 -2.8 1.9 -6 2.4 -6.9 0.8 -1.4 7.9 -4.6 19.4 -8.6 l3 -1 -4.1 -0.1 c-2.3 -0.1 -5.6 -0.4 -7.4 -0.7 l-3.2 -0.7 2.3 -1.3 c5.9 -3.3 14.3 0.1 17.8 7.1 1.8 3.6 2.7 7.5 1.8 7.5 -0.1 0 -1.7 -0.4 -3.5 -0.9 -3.9 -1.2 -9.7 0.6 -21.9 6.7 l-8.2 4.2 1.6 -5.3z"/>
  <path d="M595 302.4 c-4.1 -1.2 -9.4 -2.7 -11.6 -3.3 -4 -1.1 -4.2 -1.3 -4.9 -5.7 -0.3 -2.5 -0.4 -4.8 -0.2 -5.1 0.6 -0.6 22.9 5.6 24 6.7 0.5 0.4 0.7 2.7 0.5 5.2 l-0.3 4.5 -7.5 -2.3z"/>
  <path d="M117 297.6 l0 -5.1 6.2 -1.7 6.2 -1.6 3.5 3.5 c1.9 1.9 3 3.8 2.5 4.2 -0.5 0.5 -4.8 2 -9.6 3.4 l-8.8 2.5 0 -5.2z"/>
  <path d="M148.7 289.8 c-0.9 -2.3 -1.5 -4.3 -1.3 -4.5 0.2 -0.2 4.4 -1.2 9.2 -2.1 l8.9 -1.7 -10.9 -0.3 c-10.7 -0.3 -10.9 -0.3 -15 -3.7 -2.4 -1.9 -5.8 -4.1 -7.7 -4.9 l-3.4 -1.5 7.6 -0.1 c4.2 0 17.1 0.3 28.7 0.7 l21.1 0.6 -4.2 2.1 c-5.2 2.5 -13.3 10.5 -15.2 14.9 -0.8 1.7 -1.4 2.9 -1.5 2.6 0 -0.4 -3.3 0 -7.2 0.7 -4 0.8 -7.3 1.4 -7.4 1.4 -0.1 0 -0.8 -1.9 -1.7 -4.2z"/>
  <path d="M548.8 291.7 c-6.6 -1 -6.7 -1.1 -6 -3.6 1.9 -6.9 -0.3 -12.1 -6.3 -14.7 -2.8 -1.2 -2.2 -1.3 6.5 -1.4 5.2 0 12 -0.3 15 -0.7 5.5 -0.6 5.5 -0.6 3.7 1.4 -1 1.2 -2.2 3.4 -2.6 4.9 -0.7 2.6 -1.2 2.9 -6.2 3.5 l-5.4 0.5 5.2 0.8 5.3 0.9 -0.3 4.8 c-0.1 2.7 -0.6 4.8 -1.2 4.7 -0.5 0 -4 -0.6 -7.7 -1.1z"/>
  <path d="M627.1 287.7 c-0.6 -0.6 -1.1 -2.6 -1.1 -4.4 0 -4.9 -7.4 -12.3 -12.3 -12.3 -3.9 0 -8.4 3 -9.7 6.6 -0.9 2.3 -1.2 2.4 -13.5 2.4 l-12.5 0 0 -3.3 c0 -1.8 -0.5 -3.8 -1 -4.3 -1.2 -1.2 16.7 -2.4 36.3 -2.4 l11.8 0 -1.6 -3 c-3.9 -7.6 -1.3 -8.2 10.9 -2.5 l9.8 4.5 31.3 -0.6 31.3 -0.7 1.1 2.2 c1.6 2.9 0.5 6 -2.2 6.6 -1.2 0.3 -16.2 0.9 -33.3 1.4 l-31.1 0.8 -6.5 5.1 c-4.9 3.7 -6.8 4.8 -7.7 3.9z"/>
  <path d="M75.6 286.1 c-0.4 -0.5 0.5 -2.3 1.9 -3.9 l2.5 -3 -14.8 -0.6 c-8.1 -0.3 -24.5 -0.9 -36.4 -1.2 -19.6 -0.6 -21.9 -0.8 -23.4 -2.5 -1.4 -1.6 -1.5 -2.3 -0.5 -4.5 l1.2 -2.7 36.2 0.7 36.2 0.8 -3.2 -3.4 c-6.6 -6.9 -2.9 -7.8 7.3 -1.8 8.1 4.7 12.1 6 18.9 6 4.6 0 4.8 0.1 2.6 1.3 -1.3 0.6 -3.1 2.7 -4 4.4 -1.3 2.7 -2.2 3.3 -4.8 3.3 -2 0 -5.6 1.5 -9.5 4 -6.3 4 -9.2 4.8 -10.2 3.1z"/>
  <path d="M136.5 251.9 c-10 -1 -27.1 -4 -38.3 -6.9 l-7.3 -1.8 -5.7 2.6 c-6.1 2.8 -17.1 3.7 -17.9 1.5 -0.2 -0.6 1.2 -3 3.2 -5.2 2.6 -2.9 3.3 -4.2 2.4 -4.5 -29.2 -9.9 -51.7 -22.3 -56.4 -31.1 -2.3 -4.1 -1.3 -6.8 2.6 -7.3 1.8 -0.2 3.9 1.2 8.2 5.3 4.4 4.2 8.8 7 19 11.9 13.2 6.4 27.6 12.1 28.4 11.2 0.3 -0.3 -0.5 -3 -1.6 -6.1 -3.8 -10 -0.6 -10.2 8.6 -0.5 12 12.8 15 14.8 24.4 16.5 17.9 3.3 34.7 5.5 41.5 5.5 6.2 0 7.3 0.3 9.4 2.5 5.2 5.6 14.2 1.3 15.6 -7.4 0.4 -2.3 0.8 -4.1 1.1 -4.1 0.2 0 2.2 0.9 4.4 2 2.2 1.2 4.4 1.8 4.9 1.5 0.6 -0.3 1 0.5 1 1.8 0 1.3 0.9 3.6 2 5 1.1 1.4 1.6 2.8 1.2 3.1 -1.8 1.1 -11 2.8 -22.7 4.1 -13.2 1.6 -14.9 1.6 -28 0.4z"/>
  <path d="M561.5 251.3 c0.4 -1 0.9 -3.2 1.2 -4.9 l0.5 -3.1 9.3 -0.7 c11.5 -0.8 27.7 -3.7 43 -7.6 15.4 -4 15.5 -4 11.1 -7.4 -2 -1.5 -3.6 -3.6 -3.6 -4.7 0 -1.6 0.7 -1.9 4.8 -1.9 2.7 0 9.3 0.7 14.7 1.5 l9.8 1.4 14 -7.1 c9.6 -5 15.9 -8.9 19.8 -12.5 5.7 -5.3 8.4 -6.4 10.7 -4.1 5.7 5.7 -10.7 19.2 -35.8 29.5 -13.6 5.7 -13.7 5.7 -22 13.1 -5.4 4.9 -7.1 6 -7.6 4.8 -0.3 -0.9 -0.1 -3 0.5 -4.7 0.9 -2.8 0.9 -3 -0.7 -2.4 -9.3 3.7 -40.5 10 -56.7 11.5 -14.3 1.3 -13.8 1.3 -13 -0.7z"/>
  <path d="M237.1 228.3 l0 -6.8 8.9 -7.2 c4.8 -4 9 -7.3 9.3 -7.3 0.2 0 1 2.1 1.7 4.7 1.1 4.7 1.1 4.8 -1.7 7.1 -1.5 1.3 -6.3 5.5 -10.5 9.4 l-7.8 6.9 0.1 -6.8z"/>
  <path d="M541 233 c1.4 -1.1 4.8 -3.1 7.5 -4.6 7 -3.9 25.7 -16.7 34 -23.4 3.9 -3.1 12.9 -10.1 20 -15.5 7.2 -5.5 17.7 -14.2 23.5 -19.4 12.1 -10.9 29 -27.3 29 -28.1 0 -0.4 -2 -2.1 -4.5 -4 -4.6 -3.4 -5.7 -6.3 -2.9 -7.4 0.9 -0.3 5.7 -0.6 10.8 -0.6 l9.3 0 5.4 -6.2 c3 -3.4 7 -8.3 8.9 -10.9 18.7 -25.1 20.1 -26.6 23.5 -25.3 2.2 0.9 3.6 3.9 2.8 6.1 -0.4 1 -2.7 4.3 -5.2 7.5 -2.5 3.1 -7.1 8.9 -10.1 12.9 -3 4 -8.3 10.5 -11.6 14.5 -6 7.1 -10.2 15.3 -14.3 27.8 -0.9 2.7 -2.2 5.1 -2.8 5.4 -1.5 0.4 -3.3 -3.8 -3.3 -7.9 0 -1.6 -0.3 -2.9 -0.8 -2.9 -0.4 0 -3.9 3.2 -7.7 7.1 -11.8 12 -32.4 30 -45.5 39.9 -6.9 5.1 -15 11.5 -18 14 -3 2.6 -11.5 8.9 -18.9 13.9 l-13.4 9.1 -9.1 0 -9.1 0 2.5 -2z"/>
  <path d="M470.9 230.4 c-3.6 -4 -22.3 -18.8 -31.6 -25.1 l-8.2 -5.6 1.9 -2.8 c1.1 -1.5 2 -3.2 2 -3.8 0 -1.9 1.4 -1.2 10.6 5 12.6 8.6 33.2 25.5 34.3 28.2 0.3 0.9 -4.7 6.7 -5.9 6.7 -0.4 0 -1.7 -1.2 -3.1 -2.6z"/>
  <path d="M143.4 226.2 c-4.9 -3.2 -12.5 -8.8 -16.9 -12.3 -4.4 -3.6 -13.6 -10.7 -20.5 -15.9 -13.4 -10.1 -27.1 -22 -41.6 -36.2 -8.6 -8.5 -9.4 -9 -15.5 -10.3 -8.1 -1.7 -16.5 -5.3 -15.3 -6.5 0.5 -0.5 3.4 -1 6.4 -1.2 l5.5 -0.3 -8.4 -9 c-8 -8.6 -10.4 -11.5 -23.3 -28.7 -3.2 -4.2 -6.3 -8 -6.9 -8.3 -3.4 -2.1 -2.9 -8.5 0.7 -9.9 2.9 -1.1 5.9 1.9 17.8 17.6 6.3 8.4 14.9 18.9 19 23.3 l7.5 8 0.1 -7.2 c0 -5.6 0.3 -7.3 1.4 -7.3 1.5 0 2.6 2.9 6.6 17 1.3 4.5 3.3 8.7 4.8 10.4 7 7.4 34.8 31.7 48 41.8 8.1 6.2 17.2 13.3 20.3 15.8 3 2.5 8.7 6.6 12.7 9 l7.1 4.5 0.1 5.8 c0 3.1 -0.2 5.7 -0.4 5.7 -0.2 0 -4.4 -2.6 -9.2 -5.8z"/>
  <path d="M528 224.8 c0 -5.5 0.4 -6.8 2.4 -8.7 2 -1.8 3.3 -2.2 8.1 -1.9 l5.7 0.3 -5.9 6.9 c-3.2 3.8 -6.8 7.6 -8 8.4 l-2.3 1.4 0 -6.4z"/>
  <path d="M177.6 224.8 l-4.6 -5.3 0 -7.9 c0 -4.4 0.4 -7.6 0.8 -7.1 0.5 0.6 3 3.8 5.6 7.2 4.6 6.1 4.7 6.5 4.4 12.3 -0.2 3.3 -0.6 6 -1 6 -0.3 0 -2.7 -2.4 -5.2 -5.2z"/>
  <path d="M550.8 195.1 l-4.8 -0.6 6.4 -10.5 c11.3 -18.8 18.5 -32.1 30.6 -56.5 11.6 -23.5 22.2 -46.5 21.4 -46.5 -0.2 0 -2.3 1 -4.8 2.1 -4.7 2.3 -8 2 -7.4 -0.8 0.2 -0.9 4.6 -5.4 9.9 -10 l9.7 -8.3 4.1 -11.8 c5.1 -14.5 8.1 -26.2 8.1 -31.7 0 -4.6 1.3 -6.5 4.5 -6.5 1.2 0 2.6 0.5 3.3 1.2 3.2 3.2 0.1 21.1 -7 40.3 -3.4 9.6 -4 16.5 -2.4 29 0.7 5 0.6 6.3 -0.8 7.4 -2.4 2 -4.3 0.7 -5.7 -3.9 -0.7 -2.2 -1.6 -3.7 -2 -3.3 -0.4 0.4 -3.7 7.6 -7.4 15.8 -12.8 28.7 -48.4 96 -50.5 95.3 -0.3 0 -2.6 -0.4 -5.2 -0.7z"/>
  <path d="M297.9 184.6 l1.5 -6.1 7 -3.5 7.1 -3.6 0 5.6 0 5.6 -8.6 4.1 -8.6 4 1.6 -6.1z"/>
  <path d="M409.3 187.2 l-7.3 -3.6 0 -5.3 0 -5.4 3.3 1.6 c10 4.9 17.7 9.1 17.7 9.7 0 0.9 -5.1 6.8 -5.8 6.7 -0.4 0 -4 -1.7 -7.9 -3.7z"/>
  <path d="M144 174.2 c-9.5 -16.4 -28.7 -54.3 -37 -72.7 -5.1 -11.5 -5.7 -12.3 -14.9 -21.2 -7.3 -7 -9.3 -9.5 -8.4 -10.4 0.9 -0.9 2 -0.9 4.4 0 6 2.1 6 1.8 1.2 -11.6 -6.2 -17.6 -9.3 -29.8 -9.3 -36.4 0 -5.9 1.1 -7.9 4.5 -7.9 3 0 4.5 1.9 4.5 5.9 0 6.8 9 37.4 13.4 45.8 1.2 2.3 1.2 2.2 4.6 -2.9 4.8 -7.2 6.5 -7.5 5.6 -1.2 -0.4 2.7 -1.1 9.2 -1.5 14.4 l-0.7 9.5 4.4 10 c6.7 15.2 22.1 46.3 30.7 61.8 l7.6 13.8 -0.3 9 -0.3 8.9 -8.5 -14.8z"/>
  <path d="M356.4 176.5 c-7.1 -3.7 -12 -4.3 -19.7 -2.6 l-3.8 0.9 0.3 -3.1 0.3 -3.2 15.5 -0.3 c12.4 -0.2 15.7 -0.6 17.2 -1.8 1.3 -1.3 2.8 -1.5 6.5 -0.9 9.3 1.3 9.3 1.3 9.3 5.7 0 3.7 -0.2 4 -2.3 3.4 -1.3 -0.3 -5 -0.8 -8.2 -1.2 l-6 -0.7 2.4 2.6 c5.1 5.6 -1.6 6.3 -11.5 1.2z"/>
  <path d="M237 158.7 c0 -0.9 -1.3 -3.1 -2.9 -4.9 l-2.9 -3.2 1.9 -4.4 c1 -2.4 3.6 -7.3 5.8 -11 4.3 -7.3 6.7 -17.2 5.6 -22.9 -1.5 -8.1 2.5 -9.9 5.2 -2.3 1 2.8 2 5 2.3 5 0.3 -0.1 2.1 -2.1 4 -4.6 5.1 -6.5 21.4 -22.1 29.4 -28.1 22.8 -17 49.6 -27.3 71.1 -27.3 29 0 61.2 15.8 89.5 43.8 11.3 11.3 14.7 14 21.2 17.2 4.2 2 8.6 4 9.8 4.3 1.3 0.3 2 1.1 1.8 1.9 -0.4 0.9 -2.1 1.2 -6.3 1 l-5.8 -0.4 2.3 3.9 c1.3 2.1 3.2 5 4.2 6.4 2 2.9 8.9 17.1 8.5 17.5 -0.1 0.2 -2.8 -0.4 -5.9 -1.3 -5.6 -1.6 -5.7 -1.6 -9.9 -9.5 -5.4 -10 -6.3 -10.8 -7.9 -6.6 -1.7 4.8 -2.5 6.1 -3.8 6.6 -1.6 0.5 -3.2 -6.3 -3.2 -13.5 0 -3.4 -0.5 -7.4 -1 -8.9 -1.5 -3.9 -20.1 -21.9 -29.7 -28.7 -24.7 -17.5 -52.4 -26.7 -72.3 -23.8 -17.1 2.5 -38.1 11.6 -55.3 23.8 -8.1 5.8 -28.5 25.2 -30.6 29.2 -1.1 2 -1 2.1 4.9 2.1 3.6 0 6 0.4 6 1.1 0 0.9 -14.3 8.1 -20.1 10.2 -0.9 0.3 -4.9 7 -8.8 14.8 -3.9 7.8 -7.1 13.4 -7.1 12.6z"/>
  <path d="M183.5 155 c-0.4 -2.5 -0.9 -20 -1.1 -39 l-0.3 -34.5 -3 -8.5 c-3.3 -9.5 -5 -19 -3.3 -19 0.6 0 2.8 2.1 5 4.6 l4.1 4.5 0.6 -4.8 c2.2 -15.7 7.7 -34.8 11.6 -39.7 2.2 -2.8 5.7 -3.4 7.7 -1.4 1.7 1.7 1.5 3.5 -1.3 9.2 -3 6.1 -7.1 21.8 -8.1 30.7 l-0.6 6.4 3.9 -3.8 c4.2 -4 6.3 -4.7 6.3 -2.1 0 0.9 -3 8.5 -6.7 16.8 l-6.7 15.1 0 25.5 c0 14 0.3 27.8 0.7 30.7 0.7 5 0.7 5.1 -2.6 7.2 -1.9 1.1 -3.8 3.1 -4.4 4.3 -0.9 2 -1.1 1.8 -1.8 -2.2z"/>
  <path d="M520.7 147.3 c1 -4.9 1 -61.6 -0.1 -66.7 l-0.7 -3.9 -5.3 5.2 c-7.9 7.8 -9.9 6.5 -5 -3.2 1.5 -2.9 4.1 -7.5 5.9 -10.3 l3.3 -5.1 -1.4 -8.4 c-2.1 -12.5 -5.2 -23.5 -8 -29.1 -2.8 -5.6 -2.5 -8.5 1.2 -9.4 3.1 -0.8 4.9 0.8 7.9 6.7 3.2 6.3 5.9 16.2 8 29.5 l1.8 10.9 5.4 5.4 c6.1 6.1 10.8 13.4 9.9 15.7 -0.7 1.8 -3 0.8 -9.2 -4.2 l-4.1 -3.4 0.5 27.3 c0.3 15 0.1 31.7 -0.3 37 l-0.7 9.7 -4.9 0 -5 0 0.8 -3.7z"/>
 </g>
</svg>